<svg id="Layer_1" data-name="Layer 1" xmlns="http://www.w3.org/2000/svg" viewBox="0 0 481.86957 481.86957"><defs><style>.cls-1{fill:#00fa9a;stroke:#231f20;stroke-miterlimit:10;}.cls-2{fill:#fefefe;}</style></defs><circle class="cls-1" cx="240.93478" cy="240.93478" r="240.43478"/><path d="M377.89584,363.44839a16.61925,16.61925,0,0,0-.42472,33.23577c9.47384-.03866,16.3475-6.9252,16.69507-16.38616A16.22781,16.22781,0,0,0,377.89584,363.44839Zm34.85766-50.124c-11.71358.05146-23.42723.02577-35.1537.02577-11.59777,0-23.19554.05146-34.80612-.03866-2.66453-.02569-2.922.74661-1.73778,2.93488a51.20628,51.20628,0,0,0,13.683,16.61784c8.67578,6.64205,18.35562,9.78285,29.33556,7.59457,14.46822-2.87053,23.5945-12.38295,30.44246-24.68867C415.68838,313.672,414.723,313.31155,412.7535,313.32444Zm0,0c-11.71358.05146-23.42723.02577-35.1537.02577-11.59777,0-23.19554.05146-34.80612-.03866-2.66453-.02569-2.922.74661-1.73778,2.93488a51.20628,51.20628,0,0,0,13.683,16.61784c8.67578,6.64205,18.35562,9.78285,29.33556,7.59457,14.46822-2.87053,23.5945-12.38295,30.44246-24.68867C415.68838,313.672,414.723,313.31155,412.7535,313.32444Zm-34.85766,50.124a16.61925,16.61925,0,0,0-.42472,33.23577c9.47384-.03866,16.3475-6.9252,16.69507-16.38616A16.22781,16.22781,0,0,0,377.89584,363.44839Zm0,0a16.61925,16.61925,0,0,0-.42472,33.23577c9.47384-.03866,16.3475-6.9252,16.69507-16.38616A16.22781,16.22781,0,0,0,377.89584,363.44839Zm34.85766-50.124c-11.71358.05146-23.42723.02577-35.1537.02577-11.59777,0-23.19554.05146-34.80612-.03866-2.66453-.02569-2.922.74661-1.73778,2.93488a51.20628,51.20628,0,0,0,13.683,16.61784c8.67578,6.64205,18.35562,9.78285,29.33556,7.59457,14.46822-2.87053,23.5945-12.38295,30.44246-24.68867C415.68838,313.672,414.723,313.31155,412.7535,313.32444Zm0,0c-11.71358.05146-23.42723.02577-35.1537.02577-11.59777,0-23.19554.05146-34.80612-.03866-2.66453-.02569-2.922.74661-1.73778,2.93488a51.20628,51.20628,0,0,0,13.683,16.61784c8.67578,6.64205,18.35562,9.78285,29.33556,7.59457,14.46822-2.87053,23.5945-12.38295,30.44246-24.68867C415.68838,313.672,414.723,313.31155,412.7535,313.32444Zm-34.85766,50.124a16.61925,16.61925,0,0,0-.42472,33.23577c9.47384-.03866,16.3475-6.9252,16.69507-16.38616A16.22781,16.22781,0,0,0,377.89584,363.44839ZM522.1921,156.68388c0-3.41114-.7466-4.49235-4.33789-4.47947q-70.14652.193-140.26729.09012H237.6672c-4.44081,0-4.45369,0-4.45369,4.55669V259.21017q0,42.22691-.03866,84.44093c0,2.40707.37334,3.52694,3.23091,3.926,16.02578,2.22693,31.98713,4.87858,48,7.144,3.527.502,4.54388,1.73778,4.51812,5.38061-.193,25.61542-.05147,51.23093-.16735,76.84636-.02569,3.16656.59215,4.29931,4.05474,4.28643q84.95585-.17372,169.89881-.01289c2.98633,0,3.87451-.66929,3.86163-3.77151-.12869-25.62831-.07723-51.24382-.07723-76.85925,0-5.26472.02577-5.14884,5.31618-5.93409,15.43363-2.26551,30.84157-4.7755,46.3009-6.86078,3.527-.47634,4.06762-1.86647,4.06762-5.02015Q522.044,249.72984,522.1921,156.68388Zm-211.23117,21.535c-.01288-2.89622.8496-3.64274,3.68148-3.62986,21.00719.10292,42.02735.05146,63.03462.05146,21.02016,0,42.02743.06435,63.03471-.06434,2.909-.01289,3.64274.87529,3.64274,3.69428q-.15438,46.33956-.01288,92.66622c.01288,2.85757-.811,3.70717-3.6814,3.69429q-63.041-.11584-126.06933.01288c-2.94768,0-3.62994-.97829-3.62994-3.75863Q311.0961,224.54563,310.96093,178.21887Zm-55.40148-.91386c-.02577-1.80213.33469-2.716,2.43285-2.70319,9.5253.09011,19.05068.06442,28.57607.02577,1.5317-.01289,2.30407.28322,2.27831,2.0467-.07723,5.97259-.103,11.94526.01288,17.905.03865,2.008-.92675,2.214-2.523,2.18827-4.71115-.06434-9.42231-.02577-14.12065-.02577-4.71123,0-9.42239-.06434-14.12073.03866-1.96939.03857-2.58723-.66938-2.54865-2.60019C255.64956,188.55521,255.63668,182.93011,255.55945,177.305Zm0,38.96378c-.03865-1.9565.43769-2.909,2.66453-2.88334,9.39662.103,18.80612.07723,28.20274.01289,1.75066-.01289,2.44572.48914,2.42,2.317q-.11584,8.93968,0,17.89225c.02576,1.69912-.61784,2.12393-2.214,2.09816-4.81415-.07723-9.62838-.02577-14.44253-.02577-4.58247,0-9.17781-.11581-13.76028.05154-2.30407.07722-2.94768-.73372-2.89622-2.96065C255.67533,227.2745,255.63668,221.7652,255.55945,216.26879Zm2.5873,58.33636c-1.93081.03865-2.62595-.63072-2.60018-2.58731q.13517-8.76585,0-17.55748c-.01289-1.68624.63072-2.17539,2.22684-2.1625,9.64127.03857,19.28246.05146,28.92365-.01289,1.62189-.01288,2.17538.46338,2.14962,2.13674q-.13518,8.93969,0,17.90513c.02576,1.87928-.74661,2.317-2.45854,2.27831-4.71123-.07723-9.4095-.02569-14.12073-.02569C267.56914,274.57946,262.85791,274.515,258.14675,274.60515Zm213.70252,40.19961a11.12291,11.12291,0,0,1-8.40544,9.38373c-1.57044.36046-2.49719.14158-2.44573-1.68624.02577-.56637,0-1.14563,0-1.72489-.06435-7.42715-.06435-7.42715-7.67172-7.42715-9.03624,0-9.03624,0-9.03624,9.19062,0,23.42723-.03858,46.85446.05146,70.29458.01288,2.74176-.45049,3.91309-3.60417,4.23489-9.358.9783-17.08122,9.07482-18.43286,19.08935-.30891,2.34273-1.17132,2.716-3.2309,2.70311q-41.51252-.07719-83.03784,0c-1.95658.01288-2.67742-.38615-2.98634-2.53577-1.57043-10.82548-8.92035-18.07248-19.6686-19.39826-2.40708-.28323-2.36842-1.54467-2.36842-3.23091q.01932-19.63635.01288-39.28567c0-12.51164-.06442-25.03616.03858-37.54788.02577-2.57442-.51492-3.70717-3.39825-3.59129-5.38053.23169-10.78683.16734-16.19305.02569-2.13681-.05146-2.84476.6436-2.6903,2.74176.15446,2.05959-.06434,4.132.05146,6.19148.14165,2.30415-.91387,2.40707-2.72888,1.90512-5.2003-1.44167-8.8817-6.44893-8.39255-11.57208a11.38412,11.38412,0,0,1,10.41348-10.22037,37.05051,37.05051,0,0,1,3.7844-.06442h83.03792q42.40073,0,84.77561.01288C467.60149,302.30593,472.66021,307.60922,471.84927,314.80476ZM499.756,272.211c.01281,1.80212-.66937,2.40707-2.43284,2.39419q-14.28808-.07719-28.56319,0c-1.89224.02577-2.30408-.81095-2.29127-2.48431.06442-5.8439.103-11.70069-.01281-17.54467-.03865-1.87928.68218-2.317,2.39419-2.2912,4.71116.09012,9.4095.02569,14.10777.02569,4.827,0,9.64127.06443,14.45542-.02569,1.802-.03865,2.38131.57926,2.35554,2.38131C499.66593,260.51026,499.67881,266.36705,499.756,272.211Zm.01281-38.96387c.03865,2.07247-.81087,2.51008-2.65165,2.4715-4.69827-.09011-9.39662-.03865-14.09488-.03865-4.58247,0-9.17782-.07723-13.76028.03865-1.96947.05146-2.87053-.34757-2.819-2.61307.15446-5.71522.1158-11.45612.02569-17.18422-.03858-1.96947.68226-2.54873,2.5873-2.523,9.28081.06434,18.57443.07723,27.85524-.01289,1.99516-.01288,2.90911.47627,2.85757,2.67742Q499.59514,224.655,499.76885,233.24709Zm0-38.92521c.03865,2.09816-.901,2.48431-2.70311,2.44573-4.58246-.07723-9.16493-.02577-13.76028-.02577-4.81415,0-9.64118-.05146-14.45534.03866-1.77635.02569-2.40707-.54069-2.38138-2.35562.09011-5.85679.103-11.70077,0-17.55756-.03858-1.91793.78526-2.25262,2.45861-2.25262q14.11425.09652,28.21562,0c1.89224-.01288,2.66453.48915,2.62588,2.51008Q499.59514,185.71693,499.76885,194.32188ZM412.7535,313.32444c-11.71358.05146-23.42723.02577-35.1537.02577-11.59777,0-23.19554.05146-34.80612-.03866-2.66453-.02569-2.922.74661-1.73778,2.93488a51.20628,51.20628,0,0,0,13.683,16.61784c8.67578,6.64205,18.35562,9.78285,29.33556,7.59457,14.46822-2.87053,23.5945-12.38295,30.44246-24.68867C415.68838,313.672,414.723,313.31155,412.7535,313.32444Zm-34.85766,50.124a16.61925,16.61925,0,0,0-.42472,33.23577c9.47384-.03866,16.3475-6.9252,16.69507-16.38616A16.22781,16.22781,0,0,0,377.89584,363.44839Zm0,0a16.61925,16.61925,0,0,0-.42472,33.23577c9.47384-.03866,16.3475-6.9252,16.69507-16.38616A16.22781,16.22781,0,0,0,377.89584,363.44839Zm34.85766-50.124c-11.71358.05146-23.42723.02577-35.1537.02577-11.59777,0-23.19554.05146-34.80612-.03866-2.66453-.02569-2.922.74661-1.73778,2.93488a51.20628,51.20628,0,0,0,13.683,16.61784c8.67578,6.64205,18.35562,9.78285,29.33556,7.59457,14.46822-2.87053,23.5945-12.38295,30.44246-24.68867C415.68838,313.672,414.723,313.31155,412.7535,313.32444Zm0,0c-11.71358.05146-23.42723.02577-35.1537.02577-11.59777,0-23.19554.05146-34.80612-.03866-2.66453-.02569-2.922.74661-1.73778,2.93488a51.20628,51.20628,0,0,0,13.683,16.61784c8.67578,6.64205,18.35562,9.78285,29.33556,7.59457,14.46822-2.87053,23.5945-12.38295,30.44246-24.68867C415.68838,313.672,414.723,313.31155,412.7535,313.32444Zm-34.85766,50.124a16.61925,16.61925,0,0,0-.42472,33.23577c9.47384-.03866,16.3475-6.9252,16.69507-16.38616A16.22781,16.22781,0,0,0,377.89584,363.44839Z" transform="translate(-136.74869 -55.78466)"/><path class="cls-2" d="M394.16619,380.298c-.34757,9.461-7.22123,16.3475-16.69507,16.38616a16.61925,16.61925,0,0,1,.42472-33.23577A16.22781,16.22781,0,0,1,394.16619,380.298Z" transform="translate(-136.74869 -55.78466)"/><path class="cls-2" d="M414.517,315.77017c-6.848,12.30572-15.97424,21.81814-30.44246,24.68867-10.97994,2.18828-20.65978-.95252-29.33556-7.59457a51.20628,51.20628,0,0,1-13.683-16.61784c-1.18421-2.18827-.92675-2.96057,1.73778-2.93488,11.61058.09012,23.20835.03866,34.80612.03866,11.72647,0,23.44012.02569,35.1537-.02577C414.723,313.31155,415.68838,313.672,414.517,315.77017Z" transform="translate(-136.74869 -55.78466)"/><path d="M414.517,315.77017c-6.848,12.30572-15.97424,21.81814-30.44246,24.68867-10.97994,2.18828-20.65978-.95252-29.33556-7.59457a51.20628,51.20628,0,0,1-13.683-16.61784c-1.18421-2.18827-.92675-2.96057,1.73778-2.93488,11.61058.09012,23.20835.03866,34.80612.03866,11.72647,0,23.44012.02569,35.1537-.02577C414.723,313.31155,415.68838,313.672,414.517,315.77017Z" transform="translate(-136.74869 -55.78466)"/><path d="M394.16619,380.298c-.34757,9.461-7.22123,16.3475-16.69507,16.38616a16.61925,16.61925,0,0,1,.42472-33.23577A16.22781,16.22781,0,0,1,394.16619,380.298Z" transform="translate(-136.74869 -55.78466)"/></svg>