<svg id="Layer_1" data-name="Layer 1" xmlns="http://www.w3.org/2000/svg" viewBox="0 0 481.86957 481.86957"><defs><style>.cls-1{fill:#fafad2;stroke:#231f20;stroke-miterlimit:10;}</style></defs><circle class="cls-1" cx="240.93478" cy="240.93478" r="240.43478"/><path d="M273.64216,368.94187c0-25.97932-.05444-51.95887.07589-77.93749.01463-2.91514-.942-4.309-3.48379-5.581-18.29922-9.15761-28.74689-24.32381-33.14408-43.99562-3.40014-15.21138-1.445-30.39294.4599-45.538,2.22544-17.69322,5.45528-35.23252,8.5757-52.78518.258-1.45154.57288-2.89971.97309-4.3179a6.82949,6.82949,0,0,1,7.18094-5.10162,6.75822,6.75822,0,0,1,6.33388,6.09146,38.43922,38.43922,0,0,1,.12466,4.42571q.01261,34.53649.02,69.0729c.00515,4.95564,1.995,8.15843,5.656,9.389a8.24368,8.24368,0,0,0,10.7955-7.035q4.03227-35.76618,7.96332-71.54379a41.49661,41.49661,0,0,1,.80485-5.099,6.67561,6.67561,0,0,1,6.98383-5.308,6.4814,6.4814,0,0,1,6.65766,5.67419c1.21532,9.26977,2.215,18.5681,3.27031,27.85848,1.84677,16.25812,3.63288,32.52316,5.5312,48.77519a8.127,8.127,0,0,0,16.00194.56219,23.16616,23.16616,0,0,0,.34241-4.76689q.03108-33.79765.01912-67.59539a39.45715,39.45715,0,0,1,.10706-4.05791,6.90339,6.90339,0,0,1,13.71221-.604c1.79038,9.54719,3.585,19.09617,5.168,28.67911,2.88764,17.48119,5.91587,34.96528,6.39,52.72657.57691,21.60833-5.26593,40.83664-21.76331,55.82451a44.30335,44.30335,0,0,1-13.14871,8.71088c-2.708,1.0844-3.44279,2.68822-3.43744,5.55845.09587,51.46591.03459,102.93209.10947,154.39814.00935,6.43118-1.84653,11.90829-6.81545,16.021-6.02218,4.98453-12.90475,6.11253-20.02791,2.90962-7.36834-3.31313-11.37178-9.26645-11.39034-17.473-.05872-25.9791-.02166-51.95845-.02166-77.93772Z" transform="translate(-115.73177 -58.97279)"/><path d="M478.09372,297.31064q-.00459,74.22435-.0161,148.44882c-.00584,10.08579-5.26461,17.12222-14.49553,19.70135-10.72718,2.99722-22.63315-5.21566-23.58386-16.31908-.17808-2.07967-.12431-4.18184-.12469-6.27364q-.00975-56.31457.055-112.62893a8.54561,8.54561,0,0,0-3.00149-7.04627c-4.29875-3.86519-8.38291-7.97222-12.49988-12.03587-6.41363-6.33055-10.018-14.04147-10.0139-23.038.00653-14.51041-.7567-29.03368.8046-43.53147a215.94943,215.94943,0,0,1,13.3455-53.443,279.26979,279.26979,0,0,1,24.74727-49.67491c2.91379-4.64416,6.53151-7.94665,12.42055-7.795A12.5779,12.5779,0,0,1,478.015,145.54048c.11277,1.96386.07877,3.93732.079,5.90638Q478.09945,224.37872,478.09372,297.31064Z" transform="translate(-115.73177 -58.97279)"/></svg>