<svg id="Layer_1" data-name="Layer 1" xmlns="http://www.w3.org/2000/svg" viewBox="0 0 481.86957 481.86957"><defs><style>.cls-1{fill:#00fa9a;stroke:#231f20;stroke-miterlimit:10;}</style></defs><circle class="cls-1" cx="240.93478" cy="240.93478" r="240.43478"/><path d="M513.3647,282.14267c.061-13.827-9.00889-25.9288-20.44854-30.0586-3.52866-.94967-7.01371-2.05618-10.74269-2.04747q-81.74634.01308-163.49262-.061c-5.28858-.00871-7.9895,3.53733-7.87623,8.02433.1394,5.245.03486,10.49.03486,15.7263q0,18.61019.01741,37.22911c0,1.50729-.19168,2.50052-2.08233,2.4918-10.08922-.061-20.17847-.01742-30.259-.25268,1.67284-.55762,3.18011-1.37658,4.72226-1.97776,12.006-4.64379,18.89771-13.44359,20.90161-26.15532.65345-4.1385-.24395-8.11146-.94967-12.11056a26.42335,26.42335,0,0,0-3.24111-7.58,31.6322,31.6322,0,0,0-55.97867,3.3805,30.13738,30.13738,0,0,0-2.68346,13.15609,31.46717,31.46717,0,0,0,11.945,24.33439c3.92941,3.50247,8.86946,5.02718,13.65272,6.92655-9.66231.14813-19.29849.14813-28.93466.14813-3.13656,0-3.14526-.00872-3.14526-3.2411q0-47.87158-.00871-95.74312a32.80485,32.80485,0,0,0-.32236-6.22083c-1.82966-9.46192-10.86466-15.90056-20.83192-15.00316-8.913.80156-16.737,9.36609-16.74569,18.5492q-.03922,94.01807-.05227,188.01871c-.00871,1.71639.40078,2.213,2.16073,2.2043q16.76747-.11761,33.53494,0c1.89064.01741,2.31756-.6099,2.30013-2.37856-.07841-8.63423-.03484-17.26845-.03484-25.90268,0-3.41539,0-3.42406,3.42406-3.42406H472.276c3.16269,0,3.16269.00867,3.16269,3.215,0,8.71263.04355,17.42527-.03486,26.13791-.01741,1.77738.44433,2.36983,2.31757,2.35242q16.53217-.1307,33.07318.00872c1.97779.01741,2.579-.38336,2.57024-2.4918C513.29493,360.31247,513.20787,321.2276,513.3647,282.14267Zm-259.43617-.575a18.90968,18.90968,0,1,1-.00022.22042Q253.9278,281.67782,253.92853,281.56763ZM498.074,313.35134q-43.00989-.07842-86.02857-.03486-42.78769,0-85.57551.05227c-2.37856.00872-2.98843-.72313-2.97974-3.02328q.13071-22.54395.00873-45.09662c-.01742-2.03875.59245-2.61379,2.61379-2.61379q77.2506.06537,154.49247-.01741c10.15025-.02614,17.32073,6.25566,19.48145,14.158a18.748,18.748,0,0,1,.51406,4.80937c.02617,9.793-.02616,19.586.061,29.37029C500.68782,312.98542,499.88622,313.35134,498.074,313.35134Z" transform="translate(-114.16935 -56.52255)"/></svg>