<svg id="Layer_1" data-name="Layer 1" xmlns="http://www.w3.org/2000/svg" viewBox="0 0 481.86957 481.86957"><defs><style>.cls-1{fill:#00bfff;stroke:#231f20;stroke-miterlimit:10;}.cls-2{fill:#040404;}.cls-3{fill:#131313;}.cls-4{fill:#0c0c0c;}.cls-5{fill:#121212;}.cls-6{fill:#111;}.cls-7{fill:#101010;}.cls-8{fill:#141414;}.cls-9{fill:#141413;}.cls-10{fill:#0e0e0e;}.cls-11{fill:#0f0f0f;}.cls-12{fill:#090909;}.cls-13{fill:#0a0a0a;}.cls-14{fill:#0d0d0d;}.cls-15{fill:#767676;}</style></defs><circle class="cls-1" cx="240.93478" cy="240.93478" r="240.43478"/><path d="M278.16057,207.20645c-.065,3.24928-1.70819,5.01317-4.47473,5.03174-2.76653.02785-4.51184-1.63392-4.53971-4.62326a4.09629,4.09629,0,0,1,4.21478-4.484,4.23489,4.23489,0,0,1,4.79966,4.07552Z" transform="translate(-124.74739 -49.551)"/><path d="M269.174,179.62472c.1764-2.83152,2.05168-4.13122,4.55828-4.057,2.79439.07427,4.42829,1.736,4.38188,5.106a4.17094,4.17094,0,0,1-4.39556,3.93353q-.20764-.01152-.41336-.04367C270.50156,184.35011,268.979,182.54908,269.174,179.62472Z" transform="translate(-124.74739 -49.551)"/><path d="M287.51848,179.95893a4.11095,4.11095,0,0,1,4.289-4.39116c2.80365-.13,4.52113,1.439,4.74393,4.51185-.20424,2.70155-1.64319,4.53971-4.53042,4.49329A4.19325,4.19325,0,0,1,287.51848,179.95893Z" transform="translate(-124.74739 -49.551)"/><path d="M287.47207,207.15075a4.314,4.314,0,0,1,4.96676-3.992,4.11542,4.11542,0,0,1,4.06624,4.62325c-.12069,2.88722-1.91243,4.614-4.71608,4.44687C289.05957,212.0618,287.43493,210.28863,287.47207,207.15075Z" transform="translate(-124.74739 -49.551)"/><path d="M305.88154,179.67114a4.21418,4.21418,0,0,1,4.26757-4.16011q.17818.00228.3557.01959c2.89649.0557,4.30757,1.92173,4.60468,4.7161-.59417,2.683-2.01456,4.58613-4.96676,4.34474C307.29267,184.35939,305.65874,182.53051,305.88154,179.67114Z" transform="translate(-124.74739 -49.551)"/><path d="M305.87227,207.83773c-.15783-2.94291,1.78248-4.32618,4.44688-4.80892,2.86865.33421,4.71608,1.866,4.68823,4.69752a4.56892,4.56892,0,0,1-9.13511.1114Z" transform="translate(-124.74739 -49.551)"/><path d="M324.291,207.70776c-.02785-2.85936,1.84744-4.31689,4.66039-4.6604,2.69225.47347,4.60468,1.90316,4.44687,4.80893a4.55534,4.55534,0,0,1-9.10726-.14854Z" transform="translate(-124.74739 -49.551)"/><path d="M342.73764,207.79133c.1671-3.02647,1.81959-4.679,4.614-4.62326a4.14285,4.14285,0,0,1,4.40322,3.865q.01322.20246.00651.40547a4.23335,4.23335,0,0,1-4.36332,4.77179C344.61293,212.32174,342.979,210.55785,342.73764,207.79133Z" transform="translate(-124.74739 -49.551)"/><path d="M361.1564,207.44782a4.10514,4.10514,0,0,1,4.39118-4.31689c2.7758-.04642,4.52113,1.55037,4.614,4.66967-.1671,2.80367-1.82888,4.53043-4.62327,4.43759C362.79034,212.14536,361.07285,210.43716,361.1564,207.44782Z" transform="translate(-124.74739 -49.551)"/><path d="M379.53805,207.6335c.01856-2.99861,1.94028-4.20549,4.53043-4.58612,2.89649.4549,4.64182,1.95885,4.45614,4.86464-.17639,2.87793-2.03313,4.52113-4.83678,4.29833a4.21862,4.21862,0,0,1-4.16472-4.27184Q379.52507,207.7858,379.53805,207.6335Z" transform="translate(-124.74739 -49.551)"/><path d="M397.89182,207.73563c-.07426-2.88726,1.83817-4.30762,4.57683-4.68825,2.8315.38063,4.614,1.91243,4.53043,4.78107a4.23978,4.23978,0,0,1-4.06378,4.40873q-.159.00647-.31811.001a4.30119,4.30119,0,0,1-4.72537-4.50256Z" transform="translate(-124.74739 -49.551)"/><path d="M420.971,203.05666c2.7758.48275,4.58613,1.94957,4.40044,4.85534a4.50958,4.50958,0,0,1-9.01442-.25066C416.38486,204.77414,418.2323,203.38159,420.971,203.05666Z" transform="translate(-124.74739 -49.551)"/><path d="M442.23054,298.29763c5.3381,26.33771-1.89387,49.65824-20.24764,69.40458-1.15116,1.23471-2.31162,2.4509-4.32618,4.58613,6.73064,0,12.40294-.01856,18.08456.01855a21.9708,21.9708,0,0,1,4.27975.37134,4.003,4.003,0,0,1,3.29568,4.45615c-.09284,2.19092-1.36469,4.20549-3.62991,4.18693-11.77166-.09284-23.5712,1.03047-35.32428-.622-1.996-.24138-2.57156-1.74533-2.57156-3.37-.00929-11.30748.065-22.60569.14854-33.91317.0093-.34349.44563-.67772.687-1.01192.84482-2.78509,3.14718-2.59941,5.16171-2.20022,2.44161.492,3.47208,2.47875,3.49993,4.85536.0557,4.90177-.03714,9.80354.00929,14.7146.01856,1.36469-.427,2.82223.76127,4.71608,13.0621-12.22658,20.44259-26.84833,22.2065-44.08805-.86337-.98407-1.3647-.60343-1.84743-.35278-8.53168,4.43758-16.2928,3.305-23.58977-2.92435-5.67229-4.83677-8.55023-4.79037-14.56605-.46418-11.36318,8.18819-18.32591,8.17889-29.85622-.065-5.598-4.01055-10.71334-3.9827-15.99574.07425-10.29557,7.919-17.99172,8.0675-29.2435.57558-7.39907-4.9389-12.2637-4.79966-19.40283.24139a5.21528,5.21528,0,0,0-2.43231,5.83942c4.72538,26.39342,19.30072,44.86787,44.283,54.77354a63.188,63.188,0,0,0,33.99672,3.56492c.28785-.04641.57564-.0557.86338-.09284,3.13787-.39919,6.05293-.03714,6.60995,3.732.54773,3.74131-2.07026,5.0596-5.2267,5.48664a79.38173,79.38173,0,0,1-24.58312-.02785c-32.83627-5.80228-56.97376-29.05782-64.23358-61.68058-9.17225-41.22867,19.51422-84.60189,60.975-92.18663C393.612,228.91163,433.48533,255.09151,442.23054,298.29763Z" transform="translate(-124.74739 -49.551)"/><path d="M443.76234,400.77986c.12069,2.96149-1.66178,4.37259-4.484,4.70682-2.79439-.28779-4.56757-1.72674-4.49329-4.66038a4.138,4.138,0,0,1,4.2612-4.42829C441.92417,396.29584,443.63235,397.91122,443.76234,400.77986Z" transform="translate(-124.74739 -49.551)"/><path d="M438.98126,203.15878a4.178,4.178,0,0,1,4.79037,4.31689c.15784,3.00791-1.81032,4.23334-4.14979,4.92034-2.98934-.44561-4.80893-1.82888-4.83678-4.74395a4.132,4.132,0,0,1,4.1962-4.49328Z" transform="translate(-124.74739 -49.551)"/><path d="M453.18527,207.46639a4.12667,4.12667,0,0,1,4.38185-4.32618c2.85009-.065,4.44685,1.62464,4.68824,4.55827-.26,2.82223-1.81962,4.614-4.66042,4.53971C454.782,212.16392,453.111,210.38146,453.18527,207.46639Z" transform="translate(-124.74739 -49.551)"/><path d="M462.26465,400.80771c-.25068,3.05433-1.85673,4.71609-4.7254,4.614-2.85939-.10216-4.51185-1.83817-4.34475-4.76252a4.13559,4.13559,0,0,1,4.42832-4.27048C460.575,396.36084,461.95827,398.16187,462.26465,400.80771Z" transform="translate(-124.74739 -49.551)"/><path d="M416.34772,180.00535c.01856-3.42567,2.488-4.53043,5.6166-4.52113q17.26763.01394,34.53516,0c3.0543,0,5.60731.85409,5.663,4.4283.05569,3.75988-2.51589,4.78108-5.793,4.78108-5.75588-.01857-11.51173-.00928-17.2676-.00928s-11.51172-.01857-17.2676,0C418.64078,184.6936,416.32913,183.35675,416.34772,180.00535Z" transform="translate(-124.74739 -49.551)"/><path d="M489.8371,165.11438a13.332,13.332,0,0,0-.557-3.39782c-2.44155-8.89374-9.25578-13.84193-19.46779-13.86048q-51.92811-.0697-103.86549-.01857-50.4102-.01395-100.839,0c-2.30236,0-4.62327-.0557-6.91633.14854a18.03477,18.03477,0,0,0-16.66417,17.84318c-.13,12.11516-.00929,24.23961-.065,36.35478-.00929,2.27449.28785,4.5397,2.061,5.9044,2.4509,1.8753,2.47875,4.22406,2.47875,6.88847q-.05571,98.67593-.01856,197.34255c0,13.36846,7.20412,20.77682,20.47044,20.78611q99.10762.08359,198.21521.02785a25.39182,25.39182,0,0,0,7.69613-.882c8.38316-2.683,12.97852-9.57144,12.97852-19.74631q.02788-98.02144.00929-196.04285c0-3.28641-.4363-6.57283,2.87791-8.94944,1.34609-.9655,1.68034-2.91507,1.671-4.744C489.86492,190.21737,489.88351,177.66587,489.8371,165.11438Zm-12.71861,38.0444c-5.29169.1114-6.71206,2.98006-4.19623,7.68686,2.3952,1.55037,2.76651,3.75988,2.76651,6.50783q-.12537,96.86562-.04646,193.74052a29.528,29.528,0,0,1-.93766,8.51312c-2.25592,3.31427-5.48661,4.34474-9.34864,4.33547q-99.76209-.04178-199.5335-.03714c-7.25983,0-10.49981-3.34212-10.49981-10.68549q-.02784-98.68984-.01856-197.37042c0-1.72676-.24138-3.34212,1.94957-4.24264a4.01568,4.01568,0,0,0,2.36732-5.02246,4.27643,4.27643,0,0,0-4.84606-3.43494c-3.66706.39919-4.27049-1.2533-4.21479-4.47473.17639-10.23987.00929-20.489.08355-30.72888.065-7.55685,3.35139-10.87116,10.82474-10.87116q104.10687-.02786,208.19516,0c7.5662,0,10.9547,3.28641,11.0104,10.704.07429,10.52766-.0557,21.06461.07429,31.59226C480.78554,202.12829,480.03357,203.10308,477.11849,203.15878Z" transform="translate(-124.74739 -49.551)"/><path d="M443.31671,377.1344c-.09284,2.19093-1.36469,4.2055-3.62991,4.18694-11.77166-.09284-23.5712,1.03047-35.32428-.622-1.0769-.95621-2.08882-1.89387-2.05168-3.55562.20425-11.57672-.37134-23.16272.31564-34.73944.84482-2.78509,3.14718-2.59941,5.16171-2.20022,2.44161.492,3.47208,2.47875,3.49993,4.85536.0557,4.90177-.03714,9.80353.00929,14.71459.01856,1.3647-.427,2.82224.76127,4.71609,13.0621-12.22659,20.44259-26.84834,22.2065-44.088-.86337-.98407-1.3647-.60343-1.84743-.35279-8.53168,4.43759-16.2928,3.305-23.58977-2.92434-5.67229-4.83677-8.55023-4.79037-14.56605-.46418-11.36318,8.18818-18.32591,8.17889-29.85622-.065-5.598-4.01054-10.71334-3.98269-15.99574.07426-10.29557,7.91895-17.99172,8.0675-29.2435.57558-7.39907-4.93891-12.2637-4.79966-19.40283.24139a5.21528,5.21528,0,0,0-2.43231,5.83942c4.72538,26.39341,19.30072,44.8679,44.283,54.77354a63.18808,63.18808,0,0,0,33.99672,3.56492c.28785-.04641.57564-.0557.86338-.09284,3.13787-.39919,6.05293-.03715,6.60995,3.732.54773,3.74131-2.07026,5.05961-5.2267,5.48665a79.38173,79.38173,0,0,1-24.58312-.02785c-32.83627-5.80229-56.97376-29.05782-64.23358-61.68058-9.17225-41.2287,19.51422-84.60192,60.975-92.18666,43.596-7.98394,83.46931,18.196,92.21449,61.40207,5.3381,26.33771-1.89387,49.65824-20.24764,69.40458-1.15116,1.23471-2.31162,2.4509-4.32618,4.58613,6.73065,0,12.40294-.01856,18.08456.01855a21.9708,21.9708,0,0,1,4.27975.37134A4.00305,4.00305,0,0,1,443.31671,377.1344Z" transform="translate(-124.74739 -49.551)"/><path class="cls-2" d="M462.16254,179.91252c.0557,3.75988-2.51589,4.78108-5.793,4.78108-5.75587-.01857-11.51172-.00928-17.26759-.00928s-11.51172-.01857-17.2676,0c-3.19358.00928-5.5052-1.32756-5.48664-4.679.01856-3.42567,2.488-4.53043,5.6166-4.52114q17.26763.01392,34.53516,0C459.55384,175.48422,462.10684,176.33831,462.16254,179.91252Z" transform="translate(-124.74739 -49.551)"/><path class="cls-3" d="M315.10949,180.24673c-.59417,2.683-2.01456,4.58613-4.96676,4.34475-2.85009-.23209-4.484-2.061-4.26119-4.92034a4.21418,4.21418,0,0,1,4.26757-4.16011q.17818.00228.3557.01959C313.4013,175.58634,314.81243,177.45235,315.10949,180.24673Z" transform="translate(-124.74739 -49.551)"/><path class="cls-4" d="M388.52462,207.912c-.17639,2.87794-2.03313,4.52114-4.83678,4.29834a4.21862,4.21862,0,0,1-4.16472-4.27185q.002-.15272.01493-.305c.01856-2.99861,1.94028-4.20549,4.53043-4.58612C386.965,203.50227,388.71027,205.00623,388.52462,207.912Z" transform="translate(-124.74739 -49.551)"/><path class="cls-5" d="M462.25536,207.69848c-.26,2.82223-1.81962,4.614-4.66042,4.53971-2.813-.07427-4.484-1.85673-4.40973-4.7718a4.12668,4.12668,0,0,1,4.38186-4.32618C460.41721,203.07523,462.014,204.76485,462.25536,207.69848Z" transform="translate(-124.74739 -49.551)"/><path class="cls-6" d="M315.00738,207.72633a4.56892,4.56892,0,0,1-9.13511.1114c-.15783-2.94291,1.78248-4.32618,4.44688-4.80892C313.1878,203.363,315.03523,204.89482,315.00738,207.72633Z" transform="translate(-124.74739 -49.551)"/><path class="cls-4" d="M333.39829,207.8563a4.55534,4.55534,0,0,1-9.10726-.14854c-.02785-2.85936,1.84744-4.31689,4.66039-4.6604C331.64367,203.52084,333.55613,204.95053,333.39829,207.8563Z" transform="translate(-124.74739 -49.551)"/><path class="cls-7" d="M406.99908,207.82845a4.23978,4.23978,0,0,1-4.06378,4.40873q-.159.00647-.31811.001a4.30119,4.30119,0,0,1-4.72537-4.50258c-.07426-2.88726,1.83817-4.30761,4.57683-4.68825C405.30018,203.428,407.08263,204.95981,406.99908,207.82845Z" transform="translate(-124.74739 -49.551)"/><path class="cls-3" d="M462.26465,400.80771c-.25068,3.05433-1.85673,4.71609-4.7254,4.614-2.85939-.10216-4.51185-1.83817-4.34475-4.76252a4.13559,4.13559,0,0,1,4.42832-4.27048C460.575,396.36084,461.95827,398.16187,462.26465,400.80771Z" transform="translate(-124.74739 -49.551)"/><path class="cls-8" d="M278.16057,207.20645c-.065,3.24928-1.70819,5.01317-4.47473,5.03174-2.76653.02785-4.51184-1.63392-4.53971-4.62326a4.09629,4.09629,0,0,1,4.21478-4.484,4.23489,4.23489,0,0,1,4.79966,4.07552Z" transform="translate(-124.74739 -49.551)"/><path class="cls-9" d="M370.16156,207.8006c-.1671,2.80367-1.82888,4.53043-4.62327,4.43759-2.748-.09284-4.46544-1.801-4.38189-4.79037a4.10514,4.10514,0,0,1,4.39118-4.31689C368.32338,203.08451,370.06871,204.6813,370.16156,207.8006Z" transform="translate(-124.74739 -49.551)"/><path class="cls-10" d="M278.11416,180.67377a4.17094,4.17094,0,0,1-4.39556,3.93353q-.20764-.01152-.41336-.04367c-2.80365-.21352-4.32618-2.01455-4.13124-4.93891.1764-2.83152,2.05168-4.13122,4.55828-4.057C276.52664,175.642,278.16057,177.30381,278.11416,180.67377Z" transform="translate(-124.74739 -49.551)"/><path class="cls-11" d="M296.50507,207.782c-.12069,2.88722-1.91243,4.614-4.71608,4.44687-2.72939-.1671-4.354-1.94028-4.31689-5.07816a4.314,4.314,0,0,1,4.96676-3.992,4.11544,4.11544,0,0,1,4.06621,4.62327Z" transform="translate(-124.74739 -49.551)"/><path class="cls-7" d="M443.76234,400.77986c.12069,2.96149-1.66178,4.37259-4.484,4.70682-2.79439-.28779-4.56757-1.72674-4.49329-4.66038a4.138,4.138,0,0,1,4.2612-4.42829C441.92417,396.29584,443.63235,397.91122,443.76234,400.77986Z" transform="translate(-124.74739 -49.551)"/><path class="cls-10" d="M296.55148,180.07962c-.20424,2.70155-1.64319,4.53971-4.53042,4.49329a4.19325,4.19325,0,0,1-4.50258-4.614,4.11095,4.11095,0,0,1,4.289-4.39116C294.6112,175.4378,296.32868,177.00674,296.55148,180.07962Z" transform="translate(-124.74739 -49.551)"/><path class="cls-12" d="M351.76135,207.43854a4.23335,4.23335,0,0,1-4.36332,4.7718c-2.7851.1114-4.419-1.65249-4.66039-4.419.1671-3.02647,1.81959-4.679,4.614-4.62326a4.14286,4.14286,0,0,1,4.40322,3.865Q351.768,207.23555,351.76135,207.43854Z" transform="translate(-124.74739 -49.551)"/><path class="cls-13" d="M425.37143,207.912a4.50958,4.50958,0,0,1-9.01442-.25066c.02785-2.88722,1.87529-4.27976,4.614-4.6047C423.74679,203.53941,425.55709,205.00623,425.37143,207.912Z" transform="translate(-124.74739 -49.551)"/><path class="cls-14" d="M443.77163,207.47567c.15784,3.00791-1.81032,4.23334-4.14979,4.92034-2.98934-.44561-4.80893-1.82888-4.83678-4.74395a4.132,4.132,0,0,1,4.1962-4.49328A4.178,4.178,0,0,1,443.77163,207.47567Z" transform="translate(-124.74739 -49.551)"/><path class="cls-15" d="M404.36252,380.69932c-1.996-.24138-2.57156-1.74533-2.57156-3.37-.00929-11.30748.065-22.60569.14854-33.91317.0093-.34349.44563-.67772.687-1.01192-.0557,10.62979-.0464,21.25956-.19494,31.89861A9.478,9.478,0,0,0,404.36252,380.69932Z" transform="translate(-124.74739 -49.551)"/></svg>