<svg id="Layer_1" data-name="Layer 1" xmlns="http://www.w3.org/2000/svg" viewBox="0 0 481.86957 481.86957"><defs><style>.cls-1{fill:#00fa9a;stroke:#231f20;stroke-miterlimit:10;}.cls-2{fill:#010101;}</style></defs><circle class="cls-1" cx="240.93478" cy="240.93478" r="240.43478"/><path d="M493.06369,208.2129c-14.48615-6.61309-28.86277-13.461-43.27857-20.20711q-50.02079-23.3845-100.01812-46.83165a10.67108,10.67108,0,0,0-9.72008-.07826q-28.86673,13.57055-57.7413,27.10976-43.49379,20.438-87.01106,40.7977c-2.95828,1.38523-4.48438,3.54524-4.4609,6.81658.02348,3.48263-.0313,6.96526.00782,10.44007.05479,5.12613,2.27741,7.31745,7.44266,7.33309q18.48927,0,36.9707.00783c5.17307,0,10.34617-.05479,15.51924.0313a7.10393,7.10393,0,0,1,6.98874,6.44091c.16434,3.45917-2.94264,6.7383-6.71482,7.04353a14.80451,14.80451,0,0,1-3.3809.00783c-2.71568-.42261-3.20873.79826-3.20089,3.27916q.11736,67.1718-.00784,134.33577c-.00783,2.62177.70435,3.27916,3.2948,3.27916q48.68257-.05873,97.36507-.0626c32.36112,0,64.72221-.03912,97.07551.0626,2.80178.00783,3.62351-.587,3.61573-3.53741q-.07044-65.61046-.07046-131.22879c0-5.87744,0-5.87744-5.93223-6.11222-.28173-.00783-.56346.00784-.84524-.02348a7.40633,7.40633,0,0,1-6.4409-6.15917,6.917,6.917,0,0,1,4.97742-7.02,12.56605,12.56605,0,0,1,3.62351-.32088c17.1236-.02347,34.24721-.00782,51.363-.03913,4.44524-.00782,6.80875-2.32436,6.91833-6.707.07046-2.91133-.23477-5.86179.08608-8.7418C500.06027,212.93989,497.50115,210.23987,493.06369,208.2129ZM335.67211,372.95324c-10.174-4.89134-21.12276-7.00441-32.18894-8.67919a214.97761,214.97761,0,0,0-28.088-2.22262c-3.18525-.05479-4.3435-1.36958-4.3435-4.58611q-.02343-54.59912,0-109.19037c0-3.49829,1.40088-4.70352,4.91481-4.40612a368.08964,368.08964,0,0,1,50.7056,7.39572c3.3809.767,6.65223,1.96437,10.00182,2.8722,1.92522.51653,1.69045,1.95654,1.69045,3.35742v56.71608c0,18.994-.03132,37.98811.03912,56.99C338.41126,373.61847,337.94952,374.04892,335.67211,372.95324Zm83.35627-15.84794c0,3.69394-1.16608,4.95394-4.89917,4.97741a200.1908,200.1908,0,0,0-39.45941,4.30438,83.44566,83.44566,0,0,0-20.0271,6.48005c-2.73132,1.3461-2.747,1.33827-2.747-1.82348q-.01175-28.36192-.00783-56.73172c0-18.81406.02348-37.63593-.03131-56.45-.00784-2.09741.2974-3.2948,2.70784-4.06178,9.6105-3.0835,19.49493-4.85221,29.41064-6.41744,9.83747-1.54176,19.72973-2.747,29.67673-3.47481,4.0461-.2974,5.37656.77478,5.37656,4.8209Q419.05183,302.91706,419.02838,357.1053Z" transform="translate(-104.21579 -64.55963)"/><path d="M345.38705,434.96283q-75.49737.00021-150.99459.06233c-2.806.00478-3.89134-.58946-3.61881-3.56019.49535-5.40068-.70585-10.90382.99891-16.24821a19.61447,19.61447,0,0,1,18.04552-13.764c.93977-.03561,1.88114-.04,2.82176-.04q132.5085-.00212,265.0169-.02343c8.09908-.00329,14.69093,2.62623,19.01809,9.78369a17.527,17.527,0,0,1,2.69731,9.06046q.03726,5.503.0555,11.00617c.00851,3.71837.00048,3.72255-3.61018,3.7226q-67.73593.00124-135.472.00033Q352.8662,434.96266,345.38705,434.96283Z" transform="translate(-104.21579 -64.55963)"/><path class="cls-2" d="M217.50807,317.3125c.00007-22.39167.03257-44.78347-.049-67.17483-.00838-2.2994.54092-3.21214,2.953-3.0295a57.35639,57.35639,0,0,0,7.89713.00456c2.04335-.12813,2.8476.39709,2.73946,2.61508-.18763,3.84823-.05228,7.71224-.05228,11.56962q.00006,61.67119.06314,123.34227c.00614,2.76626-.79247,3.63192-3.46435,3.36313a34.04191,34.04191,0,0,0-6.48377-.00361c-2.73055.25073-3.72126-.48934-3.68443-3.51269.17879-14.67473.081-29.35282.08108-44.02973Q217.50808,328.88468,217.50807,317.3125Z" transform="translate(-104.21579 -64.55963)"/><path class="cls-2" d="M472.73167,317.60053q.00036,33.301,0,66.602c-.00009,3.75293-.00143,3.7542-3.88331,3.75642-2.54.00148-5.08145-.05589-7.61917.01929-1.44214.04273-2.12391-.45949-1.97775-1.94457.04576-.46582.00593-.94.00593-1.41036q-.00022-67.02532-.07872-134.05056c-.0076-2.98611.854-3.74,3.61462-3.46664a38.71037,38.71037,0,0,0,7.04707.00518c2.42938-.20592,2.94693.762,2.93891,3.04078C472.70019,272.63459,472.73143,295.11761,472.73167,317.60053Z" transform="translate(-104.21579 -64.55963)"/></svg>