<svg id="Layer_1" data-name="Layer 1" xmlns="http://www.w3.org/2000/svg" viewBox="0 0 481.86957 481.86957"><defs><style>.cls-1{fill:#f08080;stroke:#231f20;stroke-miterlimit:10;}</style></defs><circle class="cls-1" cx="240.93478" cy="240.93478" r="240.43478"/><path d="M517.84671,351.38151q-.01019-69.97944-.02051-139.952a22.38116,22.38116,0,0,0-.94248-7.60817c-3.47629-9.71851-10.72931-14.868-21.04882-14.91583-9.36339-.04781-18.72674-.08879-28.09012.03415-2.26744.03415-2.97088-.5532-2.94356-2.86843.12293-9.698.15025-19.38922.01365-29.08724a21.29931,21.29931,0,0,0-21.35822-21.24025l-.05256.00021c-21.13077-.07512-42.26153-.01365-63.39226-.03415a20.05234,20.05234,0,0,0-7.51255,1.4069c-8.89213,3.5787-13.8914,10.96833-13.946,20.5844-.05463,9.52728-.0683,19.06139.02732,28.58868.02049,2.06254-.58052,2.66354-2.65672,2.64305-9.86194-.09561-19.717-.07512-29.579-.00682-6.82276.04781-12.21132,3.05283-16.43884,8.31845-3.81774,4.7534-4.41192,10.34-4.39826,16.152q.05124,34.67727.01365,69.35454v72.58491c0,.58052-.01365,1.161.00683,1.74154.02049.56685-.082,1.22932.65564,1.441.61466.17758.8537-.40294,1.18153-.72393,2.82062-2.7933,5.62076-5.61393,8.43455-8.42088a3.69308,3.69308,0,0,1,2.75916-1.37276c25.35829.05463,50.71658-.1639,76.06119.19123,9.75266.1366,17.56572,4.97878,22.92012,13.21527a27.01857,27.01857,0,0,1,4.15238,21.08295c-.4644,2.165.10928,2.99821,2.445,2.848a84.85654,84.85654,0,0,1,8.93994-.01365,11.14825,11.14825,0,0,0,5.25879-1.13371c18.69944-8.65311,37.433-17.25156,56.071-26.03441,6.8569-3.23041,13.74793-5.69588,21.46541-4.3368C518.03112,354.20214,517.84671,352.75426,517.84671,351.38151ZM379.89574,159.586c-.01365-1.85081.37562-2.62939,2.46547-2.62256q29.30922.12294,58.63208.00683c2.02155-.00683,2.52695.64881,2.50647,2.56793-.082,8.93994-.10244,17.88671.01365,26.82665.02732,2.165-.75126,2.58159-2.725,2.56792-9.6912-.09561-19.37556-.04781-29.06676-.041-9.77314,0-19.54629-.06147-29.31263.04781-2.0079.02049-2.53377-.601-2.51328-2.52012Q380.01867,172.99929,379.89574,159.586Zm88.91449,131.55848a57.51168,57.51168,0,0,1-19.32774,32.37227,11.05253,11.05253,0,0,0-1.46155.8537,57.24126,57.24126,0,0,1-26.45784,11.87668,58.38714,58.38714,0,0,1-32.89814-3.87239c-3.80409-1.59129-7.17108-3.94067-10.80443-5.81881a57.13191,57.13191,0,0,1-22.11423-30.79464,58.15257,58.15257,0,0,1,25.57684-66.42464c12.79866-7.72427,26.58077-10.55856,41.203-7.615,18.78138,3.78359,32.76156,14.34215,41.44877,31.51175A56.13442,56.13442,0,0,1,468.81023,291.14448Z" transform="translate(-128.35102 -48.78246)"/><path d="M527.736,375.91342c-3.35331-9.43167-11.64445-13.71381-21.561-11.13906-4.44607,1.69374-8.61895,3.97482-12.96256,5.88027-.01367.00683-.02051.01365-.03418.02048a1.074,1.074,0,0,1-.1639.10244,36.72791,36.72791,0,0,1-4.69877,2.11718c-4.95829,2.3289-9.86193,4.78072-14.96362,6.80227l-.00684.00684a138.52346,138.52346,0,0,1-12.94209,5.96224c-4.7056,2.17864-9.5068,4.17971-14.08945,6.58374a33.34432,33.34432,0,0,1-17.115,3.76993c-10.33318-.34148-20.68-.09562-31.02-.09562.601-.15709.60784-.90833,1.10639-1.161.43027-.22537.94932-.30051,1.39324-.51906,6.53593-3.19624,10.463-8.39358,10.92052-15.65344.71028-11.15955-7.52621-19.78534-18.74041-19.81948-23.125-.0683-46.24318-.01365-69.3682-.06146a4.72986,4.72986,0,0,0-3.67432,1.59129c-5.85979,5.94175-11.822,11.781-17.65451,17.75011a5.795,5.795,0,0,1-4.58265,1.86448c-10.52441-.07511-21.05564.02049-31.57322-.082-2.32889-.02732-2.98453.75808-2.97087,3.01869q.10243,26.34861,0,52.704c-.01367,2.19911.71027,2.84793,2.86842,2.84109q87.64077-.07166,175.28154-.0273a8.34043,8.34043,0,0,0,4.24118-1.10639c16.14515-9.10384,32.33813-18.12575,48.4901-27.22275,9.11749-5.14269,18.28283-10.21026,27.22959-15.62612A16.20761,16.20761,0,0,0,527.736,375.91342ZM389.88744,406.38707c-6.03736.06146-12.07472.01365-18.10526.01365v-.02049c-6.20127,0-12.40938.03414-18.60381-.01365a4.71787,4.71787,0,0,1-4.79437-3.5514,5.04323,5.04323,0,0,1,1.885-5.93491,5.53232,5.53232,0,0,1,3.52407-.94249c12.0679-.00684,24.14262-.03414,36.21734.01365,3.4831.01365,5.7232,2.124,5.771,5.14268C395.82919,404.147,393.45932,406.35291,389.88744,406.38707Z" transform="translate(-128.35102 -48.78246)"/><path d="M210.08569,406.37c-.00032-11.3512.04932-22.70279-.04379-34.05324-.01782-2.17318.41336-3.04239,2.841-3.01755,12.26117.12549,24.52465.10651,36.78642.01655,2.27016-.01667,2.94119.65428,2.93257,2.96248q-.12782,34.17744-.00317,68.35543c.00836,2.339-.56657,3.11838-3.008,3.09495q-18.392-.17682-36.78632-.00117c-2.23147.02-2.78339-.653-2.76493-2.80712C210.13816,429.40431,210.086,417.887,210.08569,406.37Z" transform="translate(-128.35102 -48.78246)"/><path d="M443.49294,287.72968c.01365,1.51617-.47124,2.01474-1.99425,1.99425-5.63442-.07511-11.26883.02733-16.89641-.0683-1.74154-.02732-2.28108.51906-2.25376,2.24694.09558,5.38856-.04781,10.77027.07512,16.152.04781,2.11718-.53955,2.97769-2.77965,2.92307q-7.9497-.19465-15.8993,0c-2.21962.05462-2.84111-.75808-2.7933-2.90258.12976-5.37489-.01365-10.76345.07512-16.14517.03414-1.72105-.47125-2.30157-2.22646-2.27425-5.55246.09563-11.10493-.02732-16.65055.07512-1.74154.02732-2.28792-.50539-2.25376-2.247q.14343-8.31843,0-16.65055c-.02733-1.83716.57368-2.45182,2.4245-2.41768,5.46367.09562,10.93418-.02049,16.39786.06146,1.73472.02732,2.363-.56,2.30157-2.29473-.10244-2.81379-.02732-5.62758-.02732-8.44821,0-2.81379.0683-5.63441-.02049-8.4482-.04781-1.44787.34148-2.09669,1.91228-2.083q8.82043.09219,17.64083,0c1.59812-.01366,1.89863.67613,1.885,2.09669-.06146,5.54563.04782,11.0981-.05462,16.64373-.041,1.98058.62149,2.58158,2.56793,2.54061,5.38172-.10928,10.77026.03414,16.152-.07512,1.86448-.03414,2.45182.59417,2.41768,2.4245C443.40415,276.46769,443.4178,282.1021,443.49294,287.72968Z" transform="translate(-128.35102 -48.78246)"/></svg>