<svg id="Layer_1" data-name="Layer 1" xmlns="http://www.w3.org/2000/svg" viewBox="0 0 481.86957 481.86957"><defs><style>.cls-1{fill:#00bfff;stroke:#231f20;stroke-miterlimit:10;}</style></defs><circle class="cls-1" cx="240.93478" cy="240.93478" r="240.43478"/><path d="M427.95546,182.24549q100.66405,1.38279,173.12654,71.36425c1.88079,1.818,1.95489,2.80929.0906,4.72486q-17.19346,17.6664-34.096,35.61452c-2.112,2.24781-3.2293,2.02786-5.30663-.008-25.06847-24.56794-54.44931-41.57132-88.64066-49.87294a187.18944,187.18944,0,0,0-93.763.99244c-32.58561,8.68011-60.67149,25.16218-84.68058,48.712-2.26189,2.2186-3.43381,2.45295-5.75927-.03738-11.1327-11.92212-22.4624-23.66146-33.82879-35.36193-1.80857-1.86172-1.86084-2.87994.05492-4.73882,34.095-33.08323,74.01308-55.3702,120.53651-65.56543,6.86777-1.505,13.77055-2.78425,20.72769-3.67349A255.78489,255.78489,0,0,1,427.95546,182.24549Z" transform="translate(-187.19565 -63.36957)"/><path d="M428.11685,266.7843c44.73385.49282,82.93825,16.63593,114.857,47.95651,1.63481,1.60421,1.77624,2.47442.14755,4.15268q-17.68687,18.22544-35.15814,36.65887c-2.01455,2.13717-2.96613,1.12792-4.4168-.33415-13.88638-13.99568-30.12167-24.20437-49.3563-28.79383-38.40794-9.16431-71.83458.56684-100.37387,27.65678-3.59343,3.411-3.57735,3.45315-7.05275-.1707-11.11422-11.589-22.16572-23.23914-33.37761-34.73259-1.88793-1.9353-1.71977-2.89533.10631-4.68914a166.13655,166.13655,0,0,1,67.896-40.88214C394.51021,269.52089,412.1061,266.83192,428.11685,266.7843Z" transform="translate(-187.19565 -63.36957)"/><path d="M428.19547,351.08285c22.29258.422,41.064,8.85357,56.63349,24.74145,1.61762,1.65068,1.24044,2.47077-.1386,3.90231q-27.26409,28.30209-54.3891,56.73809c-1.81938,1.911-2.78517,1.64217-4.44888-.10263q-26.99016-28.30615-54.1206-56.47819c-1.21075-1.25985-2.24-2.08484-.46318-3.90739C386.89425,359.9491,405.7519,351.43948,428.19547,351.08285Z" transform="translate(-187.19565 -63.36957)"/></svg>