<svg id="Layer_1" data-name="Layer 1" xmlns="http://www.w3.org/2000/svg" viewBox="0 0 746.66663 746.66675"><defs><style>.cls-1{opacity:0.27;}.cls-2{fill:#3fa9f5;}.cls-3{opacity:0.8;}.cls-4{opacity:0.99;}</style></defs><g class="cls-1"><path class="cls-2" d="M1774.52362,1262.404a361.83327,361.83327,0,1,1,255.855-105.97851A359.46237,359.46237,0,0,1,1774.52362,1262.404Z" transform="translate(-1401.19049 -527.23735)"/><path d="M1774.52387,550.23735a349.16524,349.16524,0,1,1-136.35852,27.52155,348.117,348.117,0,0,1,136.35852-27.52155m0-23c-206.18628,0-373.33338,167.1471-373.33338,373.33338s167.1471,373.33337,373.33338,373.33337,373.33325-167.14709,373.33325-373.33337-167.147-373.33338-373.33325-373.33338Z" transform="translate(-1401.19049 -527.23735)"/></g><path d="M1774.52387,706.57079a193.38925,193.38925,0,1,1-75.51331,15.24506,192.78451,192.78451,0,0,1,75.51331-15.24506m0-1c-107.69556,0-195,87.30444-195,195,0,107.6955,87.30444,194.99994,195,194.99994,107.69543,0,195-87.30444,195-194.99994,0-107.69556-87.30457-195-195-195Z" transform="translate(-1401.19049 -527.23735)"/><g class="cls-3"><circle class="cls-2" cx="1774.52368" cy="900.5708" r="127.83355" transform="translate(-1137.76594 1668.14675) rotate(-67.50003)"/><path d="M1774.5238,773.23743a127.33325,127.33325,0,1,1-90.0382,37.295,126.5,126.5,0,0,1,90.0382-37.295m0-1a128.33331,128.33331,0,1,0,128.33338,128.33331A128.3333,128.3333,0,0,0,1774.5238,772.23743Z" transform="translate(-1401.19049 -527.23735)"/></g><g class="cls-4"><path d="M1774.52387,550.23735a349.16524,349.16524,0,1,1-136.35852,27.52155,348.117,348.117,0,0,1,136.35852-27.52155m0-23c-206.18628,0-373.33338,167.1471-373.33338,373.33338s167.1471,373.33337,373.33338,373.33337,373.33325-167.14709,373.33325-373.33337-167.147-373.33338-373.33325-373.33338Z" transform="translate(-1401.19049 -527.23735)"/></g></svg>