<?xml version="1.0" encoding="utf-8"?>
<!-- Generator: Adobe Illustrator 25.4.1, SVG Export Plug-In . SVG Version: 6.00 Build 0)  -->
<svg version="1.1" id="Layer_1" xmlns="http://www.w3.org/2000/svg" xmlns:xlink="http://www.w3.org/1999/xlink" x="0px" y="0px"
	 viewBox="0 0 1613.3 1613.3" style="enable-background:new 0 0 1613.3 1613.3;" xml:space="preserve">
<style type="text/css">
	.st0{opacity:0.8;}
	.st1{fill:#3FA9F5;}
	.st2{enable-background:new    ;}
</style>
<g class="st0">
	<path class="st1" d="M807,1592.5c-434.3-0.3-786.1-352.6-785.9-786.9C21.3,489.9,210.3,205,501,81.9
		C901.2-86.8,1362.4,100.8,1531.1,501c168.6,399.8-18.5,860.6-418.1,1029.7C1016.2,1571.7,912.1,1592.7,807,1592.5z"/>
	<path d="M807,20.7c53.2,0,106.2,5.3,158.3,16c100.5,20.6,196,60.8,280.9,118.2c126.3,85.3,225.2,205.3,284.7,345.7
		c20.1,47.5,35.4,96.9,45.8,147.5c21.3,104.5,21.3,212.2,0,316.7c-20.6,100.5-60.8,196-118.2,280.9
		c-85.3,126.3-205.3,225.2-345.7,284.7c-47.5,20.1-96.9,35.4-147.5,45.8c-104.5,21.3-212.2,21.3-316.7,0
		c-100.5-20.6-196-60.8-280.9-118.2c-126.3-85.3-225.2-205.3-284.7-345.7c-20.1-47.5-35.4-96.9-45.8-147.5
		C16,860.2,16,752.5,37.3,648C57.9,547.5,98,452,155.5,367.1c85.3-126.3,205.3-225.2,345.7-284.7c47.5-20.1,96.9-35.4,147.5-45.8
		C700.8,26,753.8,20.7,807,20.7 M807,19.7c-434.5,0-786.7,352.2-786.7,786.7S372.5,1593,807,1593s786.7-352.2,786.7-786.7
		S1241.5,19.7,807,19.7L807,19.7z"/>
</g>
<g class="st2">
	<path d="M805.7,140c90.1,0,177.3,17.6,259.5,52.3c39.5,16.7,77.6,37.4,113.2,61.4c35.3,23.9,68.6,51.3,98.7,81.5
		s57.6,63.4,81.5,98.7c24.1,35.6,44.7,73.7,61.4,113.2c34.7,82.1,52.3,169.4,52.3,259.5s-17.6,177.3-52.3,259.5
		c-16.7,39.5-37.4,77.6-61.4,113.2c-23.9,35.3-51.3,68.6-81.5,98.7s-63.4,57.6-98.7,81.5c-35.6,24.1-73.7,44.7-113.2,61.4
		c-82.1,34.7-169.4,52.3-259.5,52.3s-177.3-17.6-259.5-52.3c-39.5-16.7-77.6-37.4-113.2-61.4c-35.3-23.9-68.6-51.3-98.7-81.5
		s-57.6-63.4-81.5-98.7c-24.1-35.6-44.7-73.7-61.4-113.2C156.6,984,139,896.7,139,806.7s17.6-177.3,52.3-259.5
		c16.7-39.5,37.4-77.6,61.4-113.2c23.9-35.3,51.3-68.6,81.5-98.7s63.4-57.6,98.7-81.5c35.6-24.1,73.7-44.7,113.2-61.4
		C628.3,157.6,715.6,140,805.7,140 M805.7,20C371.2,20,19,372.2,19,806.7s352.2,786.7,786.7,786.7s786.7-352.2,786.7-786.7
		S1240.1,20,805.7,20L805.7,20z"/>
</g>
</svg>
