<?xml version="1.0" encoding="utf-8"?>
<!-- Generator: Adobe Illustrator 25.4.1, SVG Export Plug-In . SVG Version: 6.00 Build 0)  -->
<svg version="1.1" id="Layer_1" xmlns="http://www.w3.org/2000/svg" xmlns:xlink="http://www.w3.org/1999/xlink" x="0px" y="0px"
	 viewBox="0 0 346 437.4" style="enable-background:new 0 0 346 437.4;" xml:space="preserve">
<style type="text/css">
	.st0{fill:#00FF9B;stroke:#000000;stroke-width:15;stroke-miterlimit:10;}
</style>
<path class="st0" d="M333.2,132.3C299.8,3,145.8-29.7,59.3,52.4c-63.6,60.4-69.5,162.5-13.1,232.3c37.1,46,75,91.4,112.6,137
	c9,10.9,19.5,11,28.4,0.2c37.8-45.8,75.7-91.5,113-137.6c24.4-29.7,37.9-66.9,38.2-105.3C338.4,161,336.9,146.5,333.2,132.3z
	 M172.9,235.1c-35.5-0.1-64.7-29.3-64.8-64.8c0-35.9,29-65,64.9-65c35.7,0,64.8,28.8,65,64.5C238.2,205.6,208.6,235.2,172.9,235.1z"
	/>
</svg>
