<svg id="Layer_1" data-name="Layer 1" xmlns="http://www.w3.org/2000/svg" viewBox="0 0 481.86957 481.86957"><defs><style>.cls-1{fill:#d7b4f3;stroke:#231f20;stroke-miterlimit:10;}</style></defs><circle class="cls-1" cx="240.93478" cy="240.93478" r="240.43478"/><path d="M492.99454,289.71573c.01129,2.19926-.71056,2.80835-2.81964,2.80835q-25.85055-.08468-51.68974-.01129c-1.92866,0-2.79707-.50755-2.7294-2.66173.14663-4.57909.0338-9.16948.04509-13.75987.01129-2.064.13534-2.71818,1.39854-2.92118a9.61769,9.61769,0,0,1,1.54515-.09018c7.4552-.079,14.899-.02258,22.34286-.03387h15.84646c1.56767,0,2.83093-.23688,3.04516-1.96246a4.09732,4.09732,0,0,0,.03387-.54135c-.01129-8.177,0-16.37652-.01129-24.55349v-.76693c.01129-4.46634,0-8.92139-.02258-13.38767a2.0306,2.0306,0,0,0-.29319-.98123c-.03387-.03387-.06766-.079-.10153-.11282a2.95388,2.95388,0,0,0-.49626-.49627.2459.2459,0,0,0-.05638-.04508,5.29418,5.29418,0,0,0-2.79707-.37222q-18.16988,0-36.3509,0c-3.23694.01129-3.60916.37222-3.60916,3.55278q-.01683,17.39151-.01122,34.79438c0,.85719-.03387,1.72566,0,2.59406a3.89649,3.89649,0,0,1-.13533,1.31965c-.29326,1.0827-1.18431,1.48871-2.81965,1.47749-13.16215-.10154-26.31294-.04516-39.475-.04516-2.33467,0-4.66934-.09018-7.004.02258-1.27448.05638-1.97375-.34964-2.24442-1.21811.01129,0,.01129-.01129,0-.02251a3.287,3.287,0,0,1-.15792-1.00381q-.03387-1.30271-.03387-2.60535,0-17.52688-.01122-35.04254c0-3.56407-.25945-3.82346-3.846-3.82346q-21.16426,0-42.31718.01129a5.61191,5.61191,0,0,0-2.79713.31577c-.0338.02258-.05638.05645-.09025.079a3.68224,3.68224,0,0,0-.50748.51883.13629.13629,0,0,0-.05645.05638,5.92538,5.92538,0,0,0-.34963,3.05652q-.01683,17.89914-.01122,35.79819a15.20218,15.20218,0,0,1-.11283,2.22185v.09025c-.15792,1.173-.59773,1.66928-1.66921,1.87228a13.26809,13.26809,0,0,1-2.47.14663q-18.01757.01683-36.04635.01122c-3.78959,0-3.86855.06767-3.86855,3.97008q0,21.012.01129,42.0127c0,1.06019-.21429,2.16547.4173,3.13548a.76032.76032,0,0,0,.079.124,3.071,3.071,0,0,0,.37222.31577c.92485.6316,2.04141.39479,3.079.40608q17.66226.01683,35.31323.01122a14.75634,14.75634,0,0,1,3.3159.20308c.95865.2368,1.33086.77822,1.48878,1.95117,0,.01129-.01129.01129,0,.02258a24.04324,24.04324,0,0,1,.10147,2.83086q0,21.16427-.01122,42.32853a22.46016,22.46016,0,0,1-.09025,2.36848.01564.01564,0,0,0,0,.02258c-.16921,1.22939-.5978,1.75945-1.71437,1.97375h-.01128a16.24411,16.24411,0,0,1-2.79707.1692q-17.91606.01683-35.83206,0c-3.44.01122-3.71063.282-3.71063,3.67676q-.01694,18.05143,0,36.10274c0,3.07909.33835,3.42873,3.41744,3.44q18.1867.01693,36.36213,0c2.98878-.01122,3.41737-.4511,3.42866-3.49633.01129-12.03422-.01129-24.06845.01129-36.10274a13.48232,13.48232,0,0,1,.18042-2.84215,1.89055,1.89055,0,0,1,1.861-1.59032h.02258a18.6102,18.6102,0,0,1,2.52639-.13534q21.418-.01694,42.8473,0a16.25625,16.25625,0,0,1,2.549.12405h.02251c1.36473.25945,1.376,1.07148,1.376,3.73321q0,18.69432.01129,37.38851c0,3.91363-.36092,3.39486,3.51891,3.40615,13.94031.01122,27.86932-.01129,41.80969.02251,1.20682,0,3.00007-.59773,2.7294,1.782a3.53927,3.53927,0,0,1-2.19934,2.955,34.05635,34.05635,0,0,0-9.28224,6.97016,3.99713,3.99713,0,0,1-3.21444,1.28577q-67.13007-.03387-134.27144-.03387c-4.7934,0-7.13929-2.60535-7.13929-7.82733q-.01694-72.34071-.01129-144.67026,0-27.91447.01129-55.84025c0-5.52653,2.34589-7.87242,7.87242-7.87242q100.25529-.01694,200.51051-.03387c2.98885,0,5.45886.67676,7.01531,3.41744a7.20681,7.20681,0,0,1,.74435,3.50762Q492.92691,256.46077,492.99454,289.71573Z" transform="translate(-153.52265 -96.22087)"/><path d="M537.466,457.10106a16.33118,16.33118,0,0,0-.36092-3.85726c-2.3121-9.59808-8.177-15.94792-17.58326-18.98186a3.16944,3.16944,0,0,1-2.56026-2.77456c-.86848-4.74823-2.08658-9.44016-3.14677-14.16589-1.97375-8.84236-3.90234-17.70738-5.92125-26.54974-.46239-2.00762-.04509-3.00014,2.188-2.68431a8.30086,8.30086,0,0,0,1.29707.01129c11.41391-.12405,19.91793-8.23335,19.64726-19.60217-.30448-13.44405,2.549-26.48208,4.19566-39.678.67669-5.40248,1.65792-10.771,2.188-16.196.4173-4.331-2.16553-7.17322-6.50776-7.27469-6.14684-.15792-12.29368-.13534-18.44044-.01129-3.846.079-6.0228,2.15418-6.62052,5.96634-.5978,3.76708-1.252,7.52286-1.60161,11.30116-.203,2.27829-1.6805,1.6692-2.955,1.82712-1.56774.203-1.87222-.58651-1.83842-1.97375.06767-3.20315.03387-6.40622.01129-9.60937-.0338-4.94-2.52639-7.5115-7.5115-7.54537-7.71458-.06767-15.41786,0-23.12108-.02251-3.33848-.01129-5.88745,1.19553-7.2747,4.37609a3.6298,3.6298,0,0,0-.55264,2.45872c-.01129,3.45125,0,6.90249,0,10.35373,0,1.13915-.18049,2.05271-1.66927,2.00755-1.25191-.0338-2.49252.13534-2.53768-1.69179a2.65976,2.65976,0,0,0-.51877-1.69178c-.406-3.00007-.80081-6.00014-1.20682-9.00028-.56393-4.12793-2.57155-6.55286-6.316-6.68819-6.48519-.22559-12.98166-.23688-19.46684,0a6.32052,6.32052,0,0,0-6.13555,7.43261c.55264,4.1956,1.20682,8.38,1.77075,12.58686,1.93988,14.63957,5.04149,29.13258,4.60161,44.06541-.19172,6.30469,3.00014,11.41391,8.22212,15.09074a19.58175,19.58175,0,0,0,12.49662,3.49633c2.17682-.09025,3.58665.079,2.42492,2.88731a31.01322,31.01322,0,0,0-1.13915,5.05285c-2.57148,11.72968-5.17683,23.44814-7.7258,35.17782a4.08454,4.08454,0,0,1-3.14676,3.24823c-9.16949,3.18057-15.25988,9.36128-17.008,19.08341-1.42111,7.87242-.55264,15.89147-.50755,23.83163.02258,3.69934,2.92112,6.01144,6.78973,6.01144q50.39828.03387,100.78534,0c4.22947,0,6.75586-2.549,6.77844-6.77844C537.53363,470.094,537.51105,463.59753,537.466,457.10106Zm-96.4995-109.77441c-1.22939-9.16949-2.61664-18.3164-3.99259-27.4746-.2143-1.40982.32705-1.91737,1.6805-1.81583a11.59583,11.59583,0,0,0,2.07522-.01129c1.72565-.2143,2.39105.4173,2.57154,2.23313.37222,3.78959,1.0489,7.53408,1.61283,11.30116a6.27708,6.27708,0,0,0,6.32727,5.69567c5.36861.079,10.73722.079,16.10584-.06767,3.95879-.10147,6.41751-2.65044,6.53027-6.58665.09025-3.37235.10154-6.75593.01129-10.12821-.04509-1.70308.37221-2.56019,2.3008-2.47,2.84223.13534,5.707.11283,8.56047,0,1.51129-.05638,1.95118.49626,1.9286,1.94-.07889,3.38357-.04509,6.75586-.01122,10.12814.05637,4.44376,2.673,7.07169,7.11677,7.11678,4.75953.05638,9.53035.04509,14.28994.01129,5.00769-.03387,7.41-2.23314,8.00776-7.26341.38351-3.18056.86848-6.33855,1.16173-9.53041.33834-3.67683,3.09032-2.16547,4.94-2.32338,2.42486-.19172,1.42111,1.782,1.28578,2.77455-1.1956,9.00028-2.52646,17.97806-3.7445,26.97834-.282,2.064-1.579,2.10909-3.16928,2.10909q-18.18671-.03387-36.36219-.01129c-12.03422,0-24.06844-.05638-36.10266.04515C442.02665,349.98838,441.24842,349.40194,440.96646,347.32665Zm8.019,27.95963c-4.252-.01129-6.68819-2.53768-6.76714-6.77843-.11276-5.98892-.11276-5.98892,5.92125-5.98892H515.1231c3.361,0,3.361.01129,3.361,3.47375,0,.94743.03387,1.90608-.0338,2.85351-.31584,4.17309-2.673,6.44009-6.89127,6.44009Q480.27793,375.337,448.98551,375.28628Zm49.29869,57.26129H480.3851c-7.09427,0-14.18847-.05638-21.27145.04516-2.01884.0338-2.58277-.49626-2.1316-2.50388,2.06393-9.00028,4.01517-18.02314,6.02272-27.03472.97-4.38738,2.05271-8.74089,2.94377-13.12828.31576-1.55644,1.06012-1.861,2.48123-1.8497,7.87249.05638,15.74492.06767,23.61734-.01129,1.861-.02251,2.50388.69927,2.88731,2.4475,2.60535,12.0568,5.25586,24.11361,8.04163,36.12525C504.35208,432.58144,504.48741,432.54757,498.2842,432.54757ZM522.31884,470.703c-14.1208-.06767-28.2416-.04509-42.351-.04509-13.86142,0-27.72276-.03387-41.57289.04509-1.985.01129-2.78577-.42859-2.65044-2.57155a74.4319,74.4319,0,0,0,.02258-8.83108c-.39479-7.4439,4.90616-14.27871,14.06436-14.01926,9.85746.282,19.7375.06767,29.61755.06767,10.47777,0,20.9669.21429,31.43339-.06767,7.94009-.22559,14.24484,5.30088,13.929,13.83877-.11276,3.02265-.12405,6.06788.02258,9.09053C524.93548,470.18418,524.22492,470.703,522.31884,470.703Z" transform="translate(-153.52265 -96.22087)"/><path d="M384.93876,190.937q58.72073,0,117.44145-.005a21.008,21.008,0,0,1,6.448.55476,12.82953,12.82953,0,0,1,9.32222,10.43478,25.8415,25.8415,0,0,1,.32048,4.65376q.02712,41.31241.01208,82.62486c-.00025,3.46925-.00735,3.471-3.399,3.47348-2.425.00179-4.85178-.0573-7.27447.01778-1.45127.045-2.06653-.50512-1.99773-1.96039.06131-1.29613.00739-2.59762.00736-3.89674q-.00052-39.88338-.00118-79.76678c-.00022-3.50073-.03114-3.5347-3.42709-3.53476q-117.44144-.0023-234.88287-.00031c-3.44412.00005-3.47954.03564-3.47959,3.47732q-.00168,117.44112,0,234.88224c0,3.42466.02689,3.45066,3.507,3.45076q70.80263.0019,141.60527.00171c3.2332.00007,3.31613.02728,2.49091,3.1005a28.4823,28.4823,0,0,0-1.06726,7.16664c-.01478,1.85885-.8504,2.48787-2.55969,2.3271-.25755-.02424-.51933-.00314-.77916-.00314q-70.54281-.00063-141.08561-.0054c-6.97572-.00126-11.65383-2.95989-13.882-8.77418-.94942-2.47744-.84826-5.10208-.84838-7.69811q-.00424-91.8487-.00206-183.69741.00017-25.98266.01361-51.9653c.01357-7.13234,2.84433-11.6364,8.6482-13.97871,2.38947-.96433,4.92141-.87441,7.42815-.87484Q326.21806,190.93162,384.93876,190.937Z" transform="translate(-153.52265 -96.22087)"/><path d="M416.784,373.74093c.0338,1.18424-.58651,1.64663-1.782,1.64663q-14.29561-.0507-28.57994,0c-1.10528,0-1.64663-.43981-1.86093-1.26319a3.12227,3.12227,0,0,1-.11282-.59773c-.05638-.688-.05638-1.376-.05638-2.07529q0-21.55335,0-43.12927a12.78557,12.78557,0,0,1,.14662-2.69559c.282-1.173,1.15044-1.173,3.7445-1.173,6.49647,0,12.99294-.03387,19.47812.01129,4.39861.0338,4.0264-.71056,4.72573,3.18057.01122.0338.01122.06766.02251.10146.03387.203.06767.406.11283.6316q1.844,12.976,3.688,25.952C417.314,360.78186,416.63735,367.267,416.784,373.74093Z" transform="translate(-153.52265 -96.22087)"/><path d="M384.54945,273.80419q.04738,24.364.12241,48.72792c.00684,1.4698-.62541,1.67311-1.8629,1.66964q-24.23654-.068-48.47323-.07061c-.00961-16.00813.0249-32.01657-.08249-48.024-.014-2.0932.72661-2.35208,2.5311-2.34468C352.70584,273.82775,368.62769,273.8026,384.54945,273.80419Z" transform="translate(-153.52265 -96.22087)"/></svg>