<svg id="Layer_1" data-name="Layer 1" xmlns="http://www.w3.org/2000/svg" viewBox="0 0 481.86957 481.86957"><defs><style>.cls-1{fill:#fafad2;stroke:#231f20;stroke-miterlimit:10;}.cls-2{fill:#a6a6a6;}.cls-3{fill:#b7b7b7;}.cls-4{fill:#5b5b5b;}.cls-5{fill:#4d4d4c;}.cls-6{fill:#626262;}.cls-7{fill:#424242;}.cls-8{fill:#525252;}.cls-9{fill:#aaa;}.cls-10{fill:#5a5a5a;}.cls-11{fill:#767575;}.cls-12{fill:#a8a8a8;}.cls-13{fill:#8f8f8f;}.cls-14{fill:#c3c3c3;}</style></defs><circle class="cls-1" cx="240.93478" cy="240.93478" r="240.43478"/><path d="M320.781,338.63184c-4.97417,4.92077-9.96849,9.82139-14.91851,14.76636q-18.14876,18.13028-36.24881,36.3093a3.32613,3.32613,0,0,1-2.87778,1.08272c-3.89832-.33228-7.80223-.599-11.704-.89084-3.73505-.20824-7.46115-.57451-11.18953-.81177-3.79217-.24128-7.56185-.66255-11.34469-.96332-.21657-.01722-.43749.01335-.65293-.01543-.37945-.05068-.79875-.09858-.98666-.47554-.22146-.44426.19477-.69205.43157-.95752,1.52026-1.7042,3.19-3.26516,4.80671-4.873,7.04577-7.00685,14.04848-14.05662,21.08117-21.07644q14.58868-14.56206,29.16043-29.14106,13.27728-13.32878,26.59267-26.61934,13.154-13.12437,26.28588-26.2709c6.49424-6.48409,13.02243-12.93491,19.44122-19.49393a8.68044,8.68044,0,0,1,7.05115-3.03483c6.086.35073,12.202.07923,18.2787.44618,4.95631.2993,9.89814.223,14.84151.19456a10.32406,10.32406,0,0,1,8.27076,3.27838c5.59317,5.93415,11.567,11.50248,17.207,17.39883a3.784,3.784,0,0,1,1.09565,2.45567c.07759,1.24849.22241,2.49289.269,3.74208.31869,8.53811.38086,17.07959.3427,25.62294-.01337,2.98922.45751,5.96444.31965,8.96088a5.47086,5.47086,0,0,1-1.32293,3.73744q-5.42517,5.74827-11.17,11.17688c-2.64467,2.62993-5.24518,5.30281-7.9371,7.88512a2.33306,2.33306,0,0,1-2.50247.62178A50.19271,50.19271,0,0,0,382.45824,340.58a38.34112,38.34112,0,0,0-8.57487,2.3894,29.85964,29.85964,0,0,0-7.93337,3.65207,46.18127,46.18127,0,0,0-15.98937,15.4368,47.7138,47.7138,0,0,0-6.79977,17.42655,58.041,58.041,0,0,0-.43987,14.59772,24.26838,24.26838,0,0,0,1.31464,6.35346,2.8589,2.8589,0,0,1-.803,3.34255c-4.43787,4.38388-8.84291,8.80275-13.26621,13.20188q-6.10717,6.0738-12.19938,12.163c-1.80467,1.796-3.63022,3.57-5.44094,5.35969-5.16394,5.06949-10.23651,10.23041-15.37676,15.32338-.23211.23-.45334.47183-.69683.68923-.27528.24578-.52347.6849-.92515.54755-.39289-.13431-.39218-.61362-.413-.99119-.275-4.9888-.69751-9.97471-1.18352-14.93786-.52888-5.40113-.46419-10.85155-1.39571-16.21782a22.19927,22.19927,0,0,1-.04188-3.75248,1.74761,1.74761,0,0,1,.64452-1.2541q4.74337-4.89293,9.60014-9.67242c2.9201-2.88754,5.77457-5.8464,8.68933-8.73935,2.83678-2.81553,5.68752-5.62,8.50676-8.45262,3.16386-3.179,6.34557-6.3413,9.48817-9.54231,2.08362-2.12231,4.16556-4.25381,6.33869-6.2878,2.87712-2.62933,5.54358-5.4742,8.31654-8.21072q7.23344-7.13837,14.36846-14.37637c5.64789-5.69234,11.35876-11.32115,17.03094-16.98886,7.4781-7.47222,14.8831-15.01754,22.443-22.40853,2.16669-2.11829,4.30584-4.27274,6.39172-6.47182,1.43012-1.50771,2.368-3.21409,1.464-5.45506a4.814,4.814,0,0,0-8.0648-1.76981c-2.74435,2.70167-5.45276,5.44028-8.176,8.16363-8.86619,8.86663-17.707,17.75866-26.63156,26.56677-.11568.11417-.20834.25129-.31362.37727-6.58931,6.69368-13.31174,13.25326-19.9258,19.92058-5.73509,5.78131-11.50739,11.52515-17.25941,17.28934-5.90645,5.91894-11.84865,11.80249-17.7549,17.72155q-8.56926,8.58781-17.1465,17.16775c-1.95436,1.96019-3.87683,3.95394-5.88543,5.85774a6.37017,6.37017,0,0,0-2.13968,5.37771c.3012,4.54968.93881,9.072,1.08585,13.63169.1209,3.749.67554,7.46158.80652,11.21771.11674,3.34762.57369,6.69388.85973,10.04326.29785,3.48747.06817,3.71359-3.26422,2.59385a71.67639,71.67639,0,0,1-18.77607-9.82556,85.34758,85.34758,0,0,1-14.1762-12.68829c-.97207-1.09079-2.01958-2.12535-3.0497-3.16844a83.96852,83.96852,0,0,1-9.19147-13.0206,96.04345,96.04345,0,0,1-5.208-10.98395c-.391-.93539-.554-1.97267-.89609-2.94813-.32138-.91645.27259-1.46934,1.40071-1.35723,8.31686.82639,16.6642,1.274,24.9887,2.02218,4.324.38864,8.6651.676,12.999,1.00308a4.71638,4.71638,0,0,0,3.62986-1.54091c6.03413-5.87166,11.90388-11.9081,17.879-17.83846q13.29606-13.19655,26.51652-26.46849Q331.08445,341.468,344.252,328.25212q13.247-13.247,26.50876-26.47974,8.19855-8.15865,16.3504-16.36485a4.63273,4.63273,0,1,0-6.55722-6.53766c-2.73393,2.8008-5.53292,5.53691-8.30125,8.30337-4.92436,4.921-9.86387,9.82793-14.76654,14.76951-4.40707,4.44211-8.70186,8.99781-13.1818,13.36818-7.5967,7.41093-14.945,15.06916-22.497,22.52419A3.68125,3.68125,0,0,1,320.781,338.63184Z" transform="translate(-133.84256 -67.00438)"/><path d="M382.4759,387.521a175.50363,175.50363,0,0,1-1.54945,21.90492,167.84423,167.84423,0,0,1-3.64644,17.3787c-.13665.52266-.42142,1.00483-.59191,1.52087-.25558.77368-.59562.72246-1.32952.44816a43.32949,43.32949,0,0,1-19.77466-14.82126,43.3797,43.3797,0,0,1,.10278-52.14943,44.54866,44.54866,0,0,1,15.633-12.98012c1.34305-.6887,2.79694-1.1584,4.18169-1.76994.59928-.26467.87692-.11762,1.08473.48878a90.76522,90.76522,0,0,1,2.62614,10.08476c1.02266,4.6743,1.71121,9.40954,2.31183,14.1589C382.21608,377.25746,382.12152,382.76778,382.4759,387.521Z" transform="translate(-133.84256 -67.00438)"/><path class="cls-2" d="M413.88548,332.984c3.19076-3.24932,6.31814-6.56445,9.59769-9.72154a7.54749,7.54749,0,0,0,2.4848-6.04655c-.23727-12.089-.32514-24.17969-.79572-36.26554-.10245-2.63122-1.73833-4.0126-3.26152-5.55753-5.269-5.34408-10.63779-10.58964-15.91977-15.92107a7.16926,7.16926,0,0,0-5.34262-2.30348c-9.69623-.07076-19.39188-.22805-29.0874-.376-2.06805-.03156-4.13531-.14145-6.2018-.23933a7.48187,7.48187,0,0,0-5.96176,2.41081q-25.66295,25.76313-51.40584,51.44663-37.90517,37.904-75.8171,75.80128a11.5252,11.5252,0,0,1-1.221.94985c.34356.7779.8131.68121,1.21618.71352q11.14417.89445,22.28825,1.79015a2.07546,2.07546,0,0,1,.574.23417c-.9252.67959-1.90369.08612-2.85022.09045-5.771.02637-11.47569-1.03161-17.24712-1.09758-1.2227-.014-2.38454-.71867-3.66924-.61977a.90418.90418,0,0,1-1.04614-.59757c-.149-.4822.28311-.64019.54163-.89981q8.30361-8.33772,16.60282-16.67983,13.35384-13.38135,26.72463-26.74577,13.02759-13.02162,26.06841-26.03,11.7609-11.7668,23.49521-23.56015,13.54306-13.541,27.11629-27.05176c2.94528-2.94127,5.81485-5.9603,8.81675-8.842a6.83719,6.83719,0,0,1,4.95868-2.04534c6.5345.04634,13.07849-.02322,19.59292.43479,6.0942.42846,12.19346.08676,18.28154.46982a4.50919,4.50919,0,0,1,3.03736,1.34647q9.54783,9.566,19.04537,19.18224a5.45174,5.45174,0,0,1,1.53029,3.93733c.0934,8.6056.169,17.21148.29924,25.81653.051,3.37222.19279,6.74431.35961,10.11318a7.30094,7.30094,0,0,1-2.2458,6.01263c-3.3804,3.26223-6.64809,6.64118-9.97114,9.96312a2.0909,2.0909,0,0,1-.55371.28776Q413.64443,333.20584,413.88548,332.984Z" transform="translate(-133.84256 -67.00438)"/><path class="cls-3" d="M320.781,338.63184c1.40393-2.21711,3.4883-3.80006,5.30443-5.625q19.31041-19.40455,38.68047-38.74982c5.141-5.14666,10.26379-10.31167,15.43105-15.43182,3.06113-3.03326,7.3509-1.96392,8.57946,2.11931.58918,1.95818-.33007,3.50538-1.64264,4.82723-4.51559,4.54754-9.06571,9.06077-13.59547,13.59425Q344.215,328.71321,314.8952,358.064q-20.23413,20.24877-40.46824,40.49751a6.3685,6.3685,0,0,1-5.36319,2.13605c-6.29008-.55519-12.58787-1.02577-18.88507-1.49686-6.08172-.45495-12.16658-.86778-18.24981-1.30244-1.17731-.08409-1.39811.086-.97284,1.43405,3.09813,9.82121,8.48714,18.30562,14.91364,26.215.27969.27171.67765.5044.3252.98485-1.87741-1.27838-3.0627-3.20491-4.3483-4.96934a84.81448,84.81448,0,0,1-8.78255-14.8536c-1.10051-2.42454-2.01916-4.93947-2.88539-7.45974-.57213-1.66463.16913-2.47994,1.85516-2.06923a31.11984,31.11984,0,0,0,6.33886.38223c3.8554.14364,7.66843.7196,11.50744,1.00042,6.43019.4704,12.89718.62677,19.29107,1.5615a4.6539,4.6539,0,0,0,4.08636-1.43354q8.89311-8.75508,17.711-17.5866,11.593-11.54746,23.17257-23.10834,13.11892-13.1241,26.20825-26.27781,13.34631-13.3505,26.72292-26.67072,9.85524-9.85464,19.673-19.74678A5.03793,5.03793,0,0,0,387.772,280.034a4.39166,4.39166,0,0,0-4.98855-2.16683,5.18144,5.18144,0,0,0-2.38123,1.61492c-8.55878,8.53714-17.1852,17.0085-25.62815,25.65889-4.82849,4.94714-9.7305,9.81263-14.65732,14.65961-6.054,5.9559-11.95361,12.06857-17.94323,18.09032C321.81788,338.24849,321.59368,339.05512,320.781,338.63184Z" transform="translate(-133.84256 -67.00438)"/><path class="cls-4" d="M246.1949,426.53213l-.32522-.98483a11.6682,11.6682,0,0,1,2.94428,2.92617,88.14368,88.14368,0,0,0,19.62179,16.40528,70.3813,70.3813,0,0,0,13.65057,6.41581,17.8466,17.8466,0,0,0,2.60212.50836,41.5317,41.5317,0,0,0-.035-5.42584c-.99184-7.38285-1.20451-14.82318-1.81306-22.23337-.289-3.51882-.7231-7.01753-.80958-10.56115a6.71173,6.71173,0,0,1,2.24941-5.289c4.77133-4.71784,9.49008-9.48882,14.2342-14.23425q19.91385-19.91931,39.83383-39.83248,11.93383-11.92093,23.8989-23.81054a.45794.45794,0,0,1,.67325.00928c-3.83393,3.89915-7.64206,7.82407-11.50651,11.69274q-19.1997,19.22062-38.43291,38.40784-14.16045,14.142-28.33695,28.2678a6.48394,6.48394,0,0,0-2.04891,5.7223c.85417,6.91657,1.15187,13.88125,1.69113,20.82512.39185,5.04565.75858,10.09326,1.13847,15.13984.17767,2.36019-.00094,2.3713-2.26913,1.69823a62.88848,62.88848,0,0,1-11.04637-4.58124,82.9178,82.9178,0,0,1-15.14-10.31428,108.07157,108.07157,0,0,1-8.80317-8.46779c-.608-.8032-1.4293-1.42229-1.97091-2.28282Z" transform="translate(-133.84256 -67.00438)"/><path class="cls-5" d="M505.8719,181.23915c2.72986,1.9875,4.83037,4.63652,7.26838,6.9313,1.38081,1.2997,2.72388,2.65008,3.97992,4.06965a9.68532,9.68532,0,0,1,.06791,12.79185,98.43878,98.43878,0,0,1-7.95,7.953c-3.65743,3.20179-7.849,3.43646-11.95551.70538-1.408-.93641-2.032-.55058-2.97791.39722q-26.01438,26.06571-52.05986,52.1003c-2.57856,2.57955-5.19022,5.12725-7.71843,7.75523-.81595.84817-1.424.83718-2.05607-.05642-4.00853-5.66685-9.45838-9.96893-14.17686-14.96295-2.67893-2.83537-5.54312-5.49569-8.32389-8.23485a.32062.32062,0,0,1-.08756-.27895c.01933-.09685.041-.14529.06431-.14529.734-.36742,1.09153.237,1.526.60714,2.57408,2.19286,4.88471,4.66207,7.26417,7.05323,3.91606,3.93535,7.89855,7.80542,11.73718,11.81775a18.49586,18.49586,0,0,1,2.37,2.69386c.50429.78831.98213.7123,1.56119.1319.38475-.38562.77361-.7673,1.15886-1.15252q28.72044-28.71981,57.44063-57.43989c.38523-.38524.76389-.77735,1.15858-1.15283,1.34133-1.27611,1.73913-1.36042,3.23572-.255a9.02019,9.02019,0,0,0,6.31882,1.69379,7.70679,7.70679,0,0,0,4.868-2.06306c2.44652-2.32668,4.89241-4.65894,7.18853-7.13536,3.69082-3.98065,3.66294-8.90354-.06563-12.85574-2.95255-3.12964-6.11312-6.05546-9.07938-9.17278-.405-.42565-.95933-.74774-1.01439-1.42438A.50511.50511,0,0,1,505.8719,181.23915Z" transform="translate(-133.84256 -67.00438)"/><path class="cls-6" d="M405.0518,418.35767l.05676-.61825c.277-3.3804.94036-6.70914,1.32247-10.07921.701-6.1825.90324-12.384,1.11451-18.5898a1.00993,1.00993,0,0,1,.16033-.45032q-.00042-.81986-.00086-1.63972a23.49917,23.49917,0,0,1-.29409-4.67281c.00431-3.79953-.30987-7.59815-.65774-11.34976-.28914-3.11823-.38729-6.33765-1.31994-9.39661-.30395-.99679-.0352-2.05453-.31594-3.05473l-.04614-.61819a18.60069,18.60069,0,0,1-.94976-4.923l.0012.00064c-.90632-1.74892-.76683-3.75481-1.36646-5.59388-.30477-.93469.35044-1.39026,1.34115-.92377l-.00082-.00046a23.78684,23.78684,0,0,1,8.13465,3.64821,39.52981,39.52981,0,0,1,10.92934,8.82408,41.70582,41.70582,0,0,1,8.08073,13.22459,43.90086,43.90086,0,0,1-10.26689,47.0976,37.48762,37.48762,0,0,1-10.65673,7.61033c-.66652.30854-1.06061,1.13694-1.94942,1.0386a14.55315,14.55315,0,0,1-4.27211,1.58754l.00147-.00044c-1.14794.32383-1.45723-.49456-1.22082-1.22983.52618-1.63635.32672-3.44247,1.22413-4.97457l.00008-.0002C404.38561,421.62876,404.2278,419.89826,405.0518,418.35767Z" transform="translate(-133.84256 -67.00438)"/><path class="cls-7" d="M362.92042,330.42553l-.67323-.00926c3.30884-3.34567,6.604-6.705,9.92925-10.03428q12.37912-12.394,24.78787-24.75823c1.29089-1.28515,2.81783-2.43523,4.73-1.97152a5.8066,5.8066,0,0,1,4.61343,4.49727c.40419,1.86061-.5934,3.44684-1.80351,4.67123-6.492,6.56854-13.07964,13.04239-19.61158,19.57161-4.7371,4.73517-9.42166,9.52291-14.161,14.25584-5.65612,5.64846-11.35989,11.24919-17.01678,16.89689q-8.66349,8.64942-17.26963,17.35627a1.16137,1.16137,0,0,1-.67022.40564c-.22552-.3718.19176-.50772.28042-.76423,2.76861-3.19581,5.89613-6.04017,8.87253-9.03152q14.116-14.18683,28.28413-28.32178,15.23994-15.24866,30.47562-30.50155c2.11354-2.12119,2.29077-4.8333.75353-6.70178-1.506-1.83053-5.08192-2.05871-7.09909.06152-3.47671,3.65435-7.11006,7.15987-10.68323,10.72225Q374.79239,318.60049,362.92042,330.42553Z" transform="translate(-133.84256 -67.00438)"/><path class="cls-8" d="M409.9904,250.29359l-.02086.3953c-1.938-.97932-1.98974-1.206-.50879-2.68751q29.511-29.52275,59.04548-59.022c1.16042-1.15768,1.69787-1.8747.55695-3.60716-2.75628-4.1853-2.13316-8.72256,1.35477-12.29836,2.39015-2.45039,4.7617-4.92842,7.28586-7.2363a9.62738,9.62738,0,0,1,12.79633-.1722c5.22544,4.88535,10.18669,10.05334,15.25125,15.11021.09738.09724.08283.30657.12051.4636q-.077.08709-.15871.16972c-.91388.10849-1.33523-.60334-1.86705-1.12583-4.38851-4.31148-8.68748-8.71275-13.07057-13.02994a8.98494,8.98494,0,0,0-6.71357-2.81684,8.40263,8.40263,0,0,0-5.67841,2.11753c-2.70468,2.52937-5.34005,5.13629-7.83894,7.86571-2.443,2.66842-2.62667,7.39949-.58808,10.52955,1.61251,2.47585,1.60742,2.55924-.49609,4.66324-11.32219,11.32469-22.5184,22.77933-34.01274,33.92656-8.28916,8.03883-16.35787,16.29405-24.61205,24.36439C410.14855,248.57508,409.49823,249.22225,409.9904,250.29359Z" transform="translate(-133.84256 -67.00438)"/><path class="cls-9" d="M390.01117,370.37883c-.40542-2.88126-.642-5.8-1.26985-8.63191-.49983-2.2544-.68165-4.55391-1.308-6.79977-.70342-2.52209-1.213-5.10337-1.94469-7.63134-.48876-1.68868.208-2.46254,1.95509-2.50982,1.57805-.04274,3.15786-.01652,4.73656-.04041.80321-.01215,1.44614.28076,1.61,1.08306.57044,2.79311,1.31064,5.54782,1.9378,8.3268.60578,2.68437,1.09837,5.39652,1.50062,8.095.58917,3.95278.93447,7.96235,1.42229,11.92728.92352,7.50592.49227,14.995.48968,22.48865a109.24644,109.24644,0,0,1-1.02765,11.83485c-.55707,5.07052-1.615,10.09027-2.56582,15.1113-.40822,2.15584-1.07628,4.26359-1.652,6.38621-.31756,1.17082-1.249,1.20808-2.2235,1.11808-.07827-.8946,1.29921-.67666,1.20262-1.58579,1.37224-5.60889,2.58436-11.25116,3.44643-16.95547.73123-4.8386,1.12717-9.71774,1.44541-14.60607.25513-3.91867.35579-7.83407.2808-11.75255-.11243-5.87467-.47062-11.7296-1.1484-17.57785a180.84265,180.84265,0,0,0-3.74131-20.53788c-.41408-1.763-.89338-2.27966-2.68226-2.14-4.2427.33114-4.12035-.02235-3.01659,4.03814a106.78825,106.78825,0,0,1,2.37892,11.16358c.31646,1.98.93164,3.93334.68165,5.98174C390.34493,368.23594,390.86277,369.4162,390.01117,370.37883Z" transform="translate(-133.84256 -67.00438)"/><path class="cls-10" d="M336.0554,370.54276q-.14024.382-.28043.76417c-3.19246,3.2271-6.37244,6.46664-9.57966,9.67894q-16.21,16.23559-32.451,32.44006a3.42273,3.42273,0,0,0-1.1952,2.99865c.48217,4.37289.6361,8.77453,1.03046,13.15045.30742,3.41116.60314,6.80946.7324,10.235.13689,3.6281,1.14368,7.191,1.15918,11.0435l16.69308-16.54818a.353.353,0,0,1,.11128.49842q-6.24379,6.301-12.48874,12.60079c-1.224,1.2334-2.50122,2.41658-3.68048,3.69086-.8788.94957-1.25777.61827-1.40173-.43482-.25064-1.83358-.51855-3.66933-.65373-5.51336-.70833-9.66244-1.36062-19.329-2.08012-28.99058a3.52071,3.52071,0,0,1,1.16657-3.00953q21.02947-20.95444,42.00373-41.96428A1.82,1.82,0,0,1,336.0554,370.54276Z" transform="translate(-133.84256 -67.00438)"/><path class="cls-11" d="M312.27549,434.8038q-.0555-.249-.11113-.49824,8.93087-8.91275,17.86157-17.82558c4.45206-4.44577,8.8788-8.91724,13.36872-13.32437a2.10951,2.10951,0,0,0,.46811-2.38346c-2.21412-7.11091-2.16447-14.32255-.92872-21.56374,1.95339-11.44642,7.68233-20.75,16.38045-28.29877a51.70851,51.70851,0,0,1,12.78436-7.80322,6.2585,6.2585,0,0,1,1.595-.26739q.168.11567.11772.239-.0509.12519-.10492.12524A47.45606,47.45606,0,0,0,349.623,363.32109,46.65266,46.65266,0,0,0,344.224,376.241a44.30445,44.30445,0,0,0-.98343,18.70105c.37457,2.08248.79845,4.14607,1.259,6.20742a2.29107,2.29107,0,0,1-.60693,2.37174q-15.55068,15.47518-31.04721,31.00483A1.98719,1.98719,0,0,1,312.27549,434.8038Z" transform="translate(-133.84256 -67.00438)"/><path class="cls-12" d="M390.01117,370.37883q.04592-1.72966.0918-3.45932c.71544.25492.63895.92669.78953,1.48471.84555,3.13306.52478,6.37786.92055,9.55684a90.09607,90.09607,0,0,1,.33156,13.51841,153.193,153.193,0,0,1-2.09776,22.36128c-.80376,4.60451-1.72819,9.17362-2.901,13.69689-.45124,1.74041-.23919,2.00087,1.48122,2.2952a11.90822,11.90822,0,0,0,3.08935.0702,2.056,2.056,0,0,1,1.573.17849c-.15717.93738-1.23.471-1.61762,1.05518q-1.13778.00048-2.27543.00072c-1.06183-.486-2.3492.19628-3.34236-.64529-1.0873-.40008-.69143-1.30393-.4996-1.93468,1.10973-3.64853,1.76653-7.39592,2.62789-11.09736,1.18142-5.077,1.25594-10.291,2.37949-15.35566a11.0533,11.0533,0,0,0,.11886-2.11479c.18767-7.99089.08729-15.9816.03973-23.97312C390.70885,374.083,389.83151,372.30613,390.01117,370.37883Z" transform="translate(-133.84256 -67.00438)"/><path class="cls-13" d="M373.70664,343.20326l-.01279-.36423a7.186,7.186,0,0,1,3.44985-1.36084c6.24093-1.54071,12.52168-2.5926,19.01583-1.49772,2.62414.44242,5.23813.89,7.82206,1.51284a1.85458,1.85458,0,0,0,1.8427-.76831q3.64474-3.60144,7.28355-7.20888c.23155-.23023.40724-.51574.77766-.53208l.03371.4c-2.81027,2.84651-5.636,5.678-8.41832,8.55152a1.53014,1.53014,0,0,1-1.80128.28254c-4.31493-1.52143-8.78014-1.767-13.30129-1.75821a47.31935,47.31935,0,0,0-11.48384,1.14038C377.15509,342.041,375.44118,342.66328,373.70664,343.20326Z" transform="translate(-133.84256 -67.00438)"/><path class="cls-14" d="M407.70587,388.62009a109.01093,109.01093,0,0,1-.44138,12.36176c-.216,3.9141-.79682,7.77666-1.20721,11.662-.18092,1.7128-.62448,3.39787-.94876,5.09556-.51385-2.37647.47-4.60329.74736-6.89415.67667-5.58874,1.01334-11.19094,1.22443-16.81072A19.734,19.734,0,0,1,407.70587,388.62009Z" transform="translate(-133.84256 -67.00438)"/><path class="cls-14" d="M405.11728,358.50646a66.64239,66.64239,0,0,1,1.77728,11.88418,131.12754,131.12754,0,0,1,.89105,14.96762c-.015.541-.05318,1.08142-.0806,1.62211a20.21872,20.21872,0,0,1-.63429-4.92611,36.396,36.396,0,0,1-.22265-4.70878c.09391-4.35748-.824-8.60255-1.091-12.9122C405.63415,362.44932,404.6531,360.55594,405.11728,358.50646Z" transform="translate(-133.84256 -67.00438)"/><path class="cls-14" d="M404.10082,423.27388c-.29832,1.5758-.54076,3.1651-.91635,4.72229-.2177.90266.04925,1.33183.913,1.48213-.62867.5523-1.6438.98985-1.53007-.22063C402.75807,427.22871,402.70316,425.033,404.10082,423.27388Z" transform="translate(-133.84256 -67.00438)"/><path class="cls-14" d="M404.09729,346.44823c-.968.0343-1.3172.34893-1.01224,1.43448.46649,1.6605.70323,3.38556,1.03753,5.08319-.61828-.22452-.61149-.78937-.7626-1.30357-.37239-1.26707-.1148-2.64178-.83513-3.87816a1.379,1.379,0,0,1,.42554-1.87175C403.46453,345.61715,403.86261,345.94782,404.09729,346.44823Z" transform="translate(-133.84256 -67.00438)"/><path class="cls-14" d="M412.23112,350.096a70.83632,70.83632,0,0,0-8.13465-3.64823c2.37152-.198,4.16964,1.298,6.15653,2.17652C410.95167,348.93318,412.048,348.98654,412.23112,350.096Z" transform="translate(-133.84256 -67.00438)"/><path class="cls-14" d="M404.1214,352.96524c.294,1.64538.95457,3.22.94976,4.923C403.82607,356.42637,404.10641,354.67023,404.1214,352.96524Z" transform="translate(-133.84256 -67.00438)"/><path class="cls-14" d="M405.0518,418.35767a40.13382,40.13382,0,0,1-.9509,4.916C404.21274,421.59534,403.63915,419.78441,405.0518,418.35767Z" transform="translate(-133.84256 -67.00438)"/><path class="cls-14" d="M404.096,429.47872a24.4058,24.4058,0,0,1,4.27211-1.58756A5.3716,5.3716,0,0,1,404.096,429.47872Z" transform="translate(-133.84256 -67.00438)"/><path class="cls-3" d="M246.19515,426.53329a5.16347,5.16347,0,0,1,1.97087,2.28284A3.31367,3.31367,0,0,1,246.19515,426.53329Z" transform="translate(-133.84256 -67.00438)"/><path class="cls-9" d="M386.054,430.49214c1.06638.46207,2.31164-.00256,3.34228.64519C388.2618,431.02805,387.00205,431.56721,386.054,430.49214Z" transform="translate(-133.84256 -67.00438)"/><path d="M409.9904,250.29359c-1.0704-.57833-.97786-1.11387-.13906-1.94741,7.60959-7.56177,15.07017-15.27652,22.78335-22.73027,12.52685-12.10553,24.63961-24.62392,37.07077-36.82306.99338-.97485,1.36584-1.72833.43189-3.02729a9.0997,9.0997,0,0,1,.84828-12.35542c2.31089-2.42019,4.61162-4.87356,7.13442-7.06123a8.6829,8.6829,0,0,1,8.65254-1.8752c3.5908,1.02946,5.47455,3.88892,7.92511,6.15845,3.76882,3.49039,7.15852,7.37291,11.01555,10.77663,2.571,2.99754,5.54348,5.60247,8.26328,8.45339,1.72981,1.8132,3.58932,3.4465,4.43826,6.0384a8.50481,8.50481,0,0,1-1.72805,8.6977,105.1605,105.1605,0,0,1-7.82791,7.9682c-2.99679,2.82016-8.734,2.82671-11.432.418-1.2187-1.088-2.075-.90905-3.24283.26336q-29.519,29.63432-59.1264,59.18068c-1.47672,1.47662-1.37373,1.37854-2.78269-.18808-2.27966-2.53472-4.68316-4.961-7.09035-7.37737q-6.19439-6.218-12.462-12.363A8.81375,8.81375,0,0,0,409.9904,250.29359Z" transform="translate(-133.84256 -67.00438)"/><path d="M433.60881,387.77441c-.55322,13.09455-5.04783,23.92131-14.70329,32.46186a49.69247,49.69247,0,0,1-12.393,7.799,16.50444,16.50444,0,0,0-1.99251.65463c-.53648.325-.80937-.03091-.77662-.58832a7.78781,7.78781,0,0,1,.195-1.94071,73.3425,73.3425,0,0,0,1.62822-7.38916c.636-2.92775.66653-5.933,1.41585-8.83253.67349-2.6062.16122-5.31986.69269-7.9571a51.244,51.244,0,0,0,.60129-9.59673c.05851-5.22867.3511-10.49393-.31708-15.67194-.52043-4.0332-.4954-8.10439-1.28482-12.13651-.51378-2.62427-.81639-5.358-1.26813-8.0229a28.78083,28.78083,0,0,0-1.43878-6.60576,5.20149,5.20149,0,0,1-.21566-1.44322c-.13734-1.25268-.01022-1.52075,1.46555-1.00778a41.17482,41.17482,0,0,1,16.27293,10.632,43.32912,43.32912,0,0,1,8.94719,13.93152C432.56536,377.27484,433.19121,382.68263,433.60881,387.77441Z" transform="translate(-133.84256 -67.00438)"/><path d="M393.28938,430.08153a16.5673,16.5673,0,0,1-6.14994.09922c-.84493-.08214-1.03618-.45531-.80244-1.32183.52049-1.92947.78864-3.92939,1.34959-5.845a80.76368,80.76368,0,0,0,2.25458-11.31,146.173,146.173,0,0,0,1.73242-28.2665c-.28628-5.51829-.35262-11.07894-1.57072-16.51769.12532-2.86421-.74833-5.59378-1.23287-8.363a99.12993,99.12993,0,0,0-2.80638-11.857c-.21374-.70019.24392-.79557.62077-.84923a21.68152,21.68152,0,0,1,5.36571-.28715,1.55913,1.55913,0,0,1,1.38552,1.39752c1.009,4.94059,2.13156,9.85183,2.99377,14.82965a167.41926,167.41926,0,0,1,2.15751,25.01976,158.57108,158.57108,0,0,1-1.6889,25.23293C396.05494,418.11812,394.67531,424.105,393.28938,430.08153Z" transform="translate(-133.84256 -67.00438)"/></svg>