<svg id="Layer_1" data-name="Layer 1" xmlns="http://www.w3.org/2000/svg" viewBox="0 0 481.86957 481.86957"><defs><style>.cls-1{fill:#f08080;stroke:#231f20;stroke-miterlimit:10;}.cls-2{fill:#fefefe;}.cls-3{fill:#fdfefe;}.cls-4{fill:#414141;}.cls-5{fill:#4d4d4d;}</style></defs><circle class="cls-1" cx="240.93478" cy="240.93478" r="240.43478"/><path d="M371.1459,130.56887c-86.93883.24134-157.84566,73.07728-157.81946,162.66064.03922,89.81129,70.85451,162.35227,158.55234,162.4193,87.78937.0536,158.52606-72.47388,158.657-162.59362C530.66661,203.69976,459.60273,130.32752,371.1459,130.56887Zm119.48678,78.72228c3.87378-.18766,6.02012,1.475,7.89159,4.82717,5.65371,10.12354,10.74468,20.48842,14.06882,31.69813.4188,3.4192.94232,6.81155,2.82689,9.78832a149.7942,149.7942,0,0,1,4.46273,30.88014c.11782,2.44039-.68057,3.62036-2.7745,4.51871-5.79765,2.48066-5.74533,2.53426-9.31813-2.92308q-10.60074-16.15068-21.25372-32.26127a6.27171,6.27171,0,0,1-1.36113-3.94215c.85071-13.288,1.68831-26.56259,2.395-39.85055C487.70115,209.70682,488.52557,209.39844,490.63268,209.29115ZM343.76726,340.14645q29.19115.0604,58.38231-.01342a4.36588,4.36588,0,0,1,3.96548,2.07833c6.66146,9.33247,13.40136,18.61125,20.12823,27.90345.49733.68386,1.02077,1.36771,1.58359,1.998,2.04161,2.31968,5.07779,2.72192,7.27652,1.019a5.42606,5.42606,0,0,0,.92915-7.64288c-5.49667-7.72341-11.12418-15.33952-16.62085-23.06293-2.08084-2.90966-5.4966-5.47077-5.79766-8.89-.28788-3.24488,1.68831-6.73118,2.74838-10.08335,5.16949-16.26473,10.3782-32.50262,15.49529-48.76735a3.67878,3.67878,0,0,1,3.10167-2.76218c11.43835-2.77561,22.88971-5.52437,34.26247-8.56817,7.97019-2.14535,7.944-2.35994,12.446,4.45169,6.49132,9.80174,12.76009,19.751,19.47387,29.37846a8.20076,8.20076,0,0,1,1.15169,8.24628q-9.95289,28.4197-19.84027,56.87967a3.65719,3.65719,0,0,1-2.8138,2.68173c-12.48523,3.56667-24.93124,7.29424-37.41647,10.861a11.426,11.426,0,0,0-6.50441,4.58574c-9.77616,13.62326-19.69633,27.15257-29.47257,40.77583a4.78668,4.78668,0,0,1-4.4235,2.25265c-9.64532-.09387-19.27753-.04027-28.90974-.04027-9.5537,0-19.09437-.067-28.635.05369a5.03748,5.03748,0,0,1-4.646-2.40021q-13.44724-18.70508-27.03835-37.28952c-1.09929-1.51519-1.06007-2.53426.0393-4.0226q13.76128-18.80562,27.39165-37.732A4.09448,4.09448,0,0,1,343.76726,340.14645ZM328.54676,285.077c-1.348-4.26395-2.49964-8.62177-4.12244-12.77842-.81141-2.07841-.06542-2.92317,1.34794-3.969q18.59053-13.77737,37.15479-27.59508c2.70908-2.0113,5.48357-3.96891,8.12723-6.08751,1.28252-1.01907,2.251-1.23357,3.67752-.16089q22.92888,17.1966,45.93629,34.24572a2.36072,2.36072,0,0,1,1.03387,3.0974q-8.7946,27.51459-17.43218,55.056a3.052,3.052,0,0,1-3.42894,2.48066c-9.34425-.12072-18.70168-.05369-28.059-.05369-9.1742,0-18.34839-.067-27.50948.067-2.05471.02684-3.01005-.68378-3.6121-2.57444Q335.14276,305.92748,328.54676,285.077Zm101.46566-131.5525a143.211,143.211,0,0,1,25.89969,14.61541,150.78949,150.78949,0,0,1,28.98834,26.91122c.70668.84476,1.59661,1.62248,1.72753,2.86948-1.36113.5498-2.36879-.24135-3.35034-.93862-17.41916-12.30916-34.79909-24.67192-52.25747-36.91405-2.22485-1.55545-2.31647-3.8617-2.77458-5.9803C427.83989,152.22383,429.25334,153.20272,430.01242,153.52451ZM328.887,155.2542a2.41245,2.41245,0,0,0,.26176-.80448c.07852-6.70434,4.44971-8.34024,9.86778-9.42634a164.07127,164.07127,0,0,1,33.72593-3.53983c12.94333-.161,26.46242,1.98446,39.81146,5.56455,2.68287.72412,3.54668,2.37336,4.201,4.88078,1.55739,5.92661,1.72753,6.04732-4.09632,7.42837-12.53763,2.9902-25.12758,5.77914-37.67823,8.68888-3.08866.71062-5.94168-.523-8.82089-1.15321-11.76545-2.58786-23.49159-5.39023-35.244-8.03178C328.78232,158.37845,328.06254,157.34595,328.887,155.2542Zm-4.057,13.11373q19.37569,4.52543,38.77759,8.93014c4.13555.93862,4.14865.885,4.14865,5.09528v11.78628h.0131c0,4.41142-.0393,8.82285.0131,13.23436.05232,3.83486,2.05471,6.07408,5.261,6.04732,3.06245-.02684,5.11717-2.21246,5.15639-5.89985.09162-8.71564.11782-17.4447,0-26.16034-.02612-2.21238.53662-3.16443,2.74837-3.64712,11.13728-2.44039,22.23527-5.06852,33.34635-7.61612a29.671,29.671,0,0,0,5.16949-1.19339c3.23251-1.40789,5.53589-.08045,8.14024,1.78338,15.90107,11.38395,31.89368,22.607,47.88637,33.83006a3.79992,3.79992,0,0,1,1.75365,3.79468q-1.21712,20.09288-2.29027,40.18576c-.09155,1.99788-1.15169,2.65489-2.696,3.0438q-14.9784,3.66058-29.94369,7.3345c-3.18019.77773-6.41271,1.39456-9.50129,2.44039-2.25105.76431-3.82154.21459-5.62759-1.1397q-24.73489-18.52413-49.5746-36.9007c-3.84758-2.85606-5.43117-2.82922-9.26573.01342q-24.79384,18.42346-49.5746,36.88728a5.5732,5.5732,0,0,1-5.35273,1.07268c-12.76009-3.312-25.5594-6.43615-38.37189-9.50679-2.408-.57657-3.48118-1.43466-3.599-4.29071-.51034-12.926-1.30873-25.83855-2.107-38.75111a4.41343,4.41343,0,0,1,2.12013-4.47853c16.52923-11.59846,32.993-23.31763,49.46988-35.01A4.40985,4.40985,0,0,1,324.83,168.36793Zm-44.60145,5.63166a143.58851,143.58851,0,0,1,35.80676-21.40028c.75908-.32179,1.58359-1.0861,2.31647-.46927.82451.68377-.13084,1.55537-.18324,2.35986-.20936,3.41928-2.26407,5.29644-4.88153,7.12q-24.44051,17.09607-48.68467,34.47374a9.71148,9.71148,0,0,1-8.0356,1.97112A150.4124,150.4124,0,0,1,280.22857,173.99959ZM224.25428,282.1942a153.19265,153.19265,0,0,1,22.039-69.64467c1.38725-2.30633,3.1933-2.81587,5.549-2.97677,6.66146-.41566,6.72688-.46927,7.1718,6.27525.85071,12.80527,1.58359,25.61062,2.43429,38.42931.27479,4.331,1.63591,5.61824,5.88928,6.66408,11.51678,2.81587,23.02047,5.75229,34.52423,8.62177,3.1671.80456,6.3342,1.64932,9.52749,2.31975a3.133,3.133,0,0,1,2.60436,2.53418q9.06946,28.74158,18.30908,57.4428a3.79879,3.79879,0,0,1-.70668,3.70081q-13.89873,19.047-27.70574,38.161a2.7051,2.7051,0,0,1-3.55978,1.18c-2.19865-.7643-4.47582-1.3006-6.7268-1.93085a87.60331,87.60331,0,0,0-13.97727-4.103l.0131-.01343a75.58209,75.58209,0,0,0-13.50608-3.99576c-1.55739-.17431-1.81907-1.58221-2.19865-2.66831-6.88392-19.7778-13.70234-39.58244-20.59936-59.36023-.602-1.68951.18324-2.73534.95535-3.90189q8.04875-12.22875,16.12353-24.43065c.94232-1.43474,1.91077-2.89624,1.806-4.7198a5.09487,5.09487,0,0,0-3.35034-4.84059c-2.44731-.93855-4.89463-.067-6.55674,2.427-4.14864,6.22165-8.21876,12.4969-12.32819,18.75881-.47112.71062-.94224,1.40789-1.42654,2.11851-3.5859,5.35013-3.5859,5.35013-9.37046,2.57453C223.91408,288.28171,223.84857,288.26828,224.25428,282.1942Zm30.25777,88.162c-.92915,2.494-1.83217,5.00141-2.7614,7.50883-.24866.69727-.44492,1.66266-1.28253,1.62248-.4581-.02685-.92922-.83142-1.28252-1.35429a153.18091,153.18091,0,0,1-24.8528-71.84371c-.24866-5.77914-.31408-5.55121,3.57288-4.22377,3.62512,1.23366,5.32653,3.55333,6.56975,7.2273,6.47822,19.30852,13.28362,38.49634,19.9843,57.72433A4.66409,4.66409,0,0,1,254.51205,370.35624Zm73.94309,57.52317c-3.599,1.55545-7.11948,3.312-10.69228,4.97465-.57584.26819-1.21711.42909-1.97619.71062-2.00231-.8581-4.08323-1.66267-6.09864-2.64147a151.86439,151.86439,0,0,1-49.70543-38.37563,3.73416,3.73416,0,0,1-.79839-4.38466c1.38725-3.32533,2.552-6.75794,3.70372-10.19056.62817-1.8504,1.50507-2.50742,3.52048-1.89067,10.90172,3.33875,21.82956,6.55686,32.78361,9.73471a6.367,6.367,0,0,1,3.5859,2.50742q13.17237,18.18211,26.384,36.33756C330.31359,426.21675,330.40521,427.04808,328.45514,427.87941Zm83.87637,11.35719a157.71411,157.71411,0,0,1-18.61007,4.03594,148.58748,148.58748,0,0,1-34.41959,1.04592,135.51046,135.51046,0,0,1-28.59566-5.44392c4.56745-2.15878,8.245-4.693,13.16579-4.65285,20.02352.18774,40.034.12071,60.05752.04026,3.49428-.01342,6.12483,2.1186,9.08257,3.379C414.22918,438.1505,413.28685,438.96841,412.33151,439.2366Zm73.30182-48.92832a154.69287,154.69287,0,0,1-48.135,39.08632c-5.75836,3.05722-10.70538,4.06287-16.18895.12071-1.67513-1.20681-4.803-1.15321-5.22181-3.07064-.37951-1.72969,1.98929-3.45938,3.20639-5.13546,7.86547-10.91468,15.84867-21.73549,23.60942-32.73062,1.59669-2.25265,3.76914-2.68174,5.94167-3.33875,10.48284-3.12425,20.97886-6.15462,31.47488-9.21176a4.70868,4.70868,0,0,1,.68048-.14747c1.45275-.228,1.87155.33522,2.19873,1.28718,1.13859,3.23154,2.31639,6.44957,3.612,9.62742C487.46551,388.43111,486.45784,389.30262,485.63333,390.30828Zm33.94839-86.325a76.27394,76.27394,0,0,1-1.2826,12.56392,147.51332,147.51332,0,0,1-6.596,26.938,151.90591,151.90591,0,0,1-15.299,31.91263c-.37951.59-.51043,1.59564-1.492,1.50177-1.03387-.09379-.83753-1.11286-1.09929-1.76987-.66746-1.68951-1.30873-3.379-1.96309-5.06852-.35338-2.22581,1.25633-4.07621,1.16479-6.26183,2.94463-8.34024,5.91539-16.667,8.82081-25.03406,3.76914-10.78054,7.52518-21.57451,11.1765-32.40874.95534-2.85606,3.49428-3.23146,5.61441-4.10306C519.935,301.7038,519.56862,303.286,519.58172,303.9833Z" transform="translate(-130.9964 -52.17377)"/><path class="cls-2" d="M279.63963,368.85439c-4.56745-1.0861-9.05637-2.48057-13.50608-3.99576A75.58209,75.58209,0,0,1,279.63963,368.85439Z" transform="translate(-130.9964 -52.17377)"/><path class="cls-2" d="M293.6038,372.97087a141.54071,141.54071,0,0,1-13.97727-4.103A87.60331,87.60331,0,0,1,293.6038,372.97087Z" transform="translate(-130.9964 -52.17377)"/><path class="cls-3" d="M491.84979,370.06121c-1.191-2.3867.8114-4.15666,1.16479-6.26183C493.10612,365.985,491.49641,367.8354,491.84979,370.06121Z" transform="translate(-130.9964 -52.17377)"/><path class="cls-4" d="M293.6038,372.97087c-3.52048.26819-6.63525-1.4079-9.84165-2.427-1.36113-.42909-3.35034.3218-4.13562-1.67608A87.60331,87.60331,0,0,1,293.6038,372.97087Z" transform="translate(-130.9964 -52.17377)"/><path class="cls-5" d="M279.63963,368.85439c-3.33724.228-6.295-1.32744-9.33124-2.31967-1.37414-.44251-3.36343.28161-4.17484-1.67609A75.58209,75.58209,0,0,1,279.63963,368.85439Z" transform="translate(-130.9964 -52.17377)"/><path class="cls-4" d="M491.84979,370.06121c-2.18555-2.58787.31408-4.264,1.16479-6.26183C493.10612,365.985,491.49641,367.8354,491.84979,370.06121Z" transform="translate(-130.9964 -52.17377)"/></svg>