<svg id="Layer_1" data-name="Layer 1" xmlns="http://www.w3.org/2000/svg" viewBox="0 0 481.86957 481.86957"><defs><style>.cls-1{fill:#f08080;stroke:#231f20;stroke-miterlimit:10;}.cls-2{fill:#010101;}</style></defs><circle class="cls-1" cx="240.93478" cy="240.93478" r="240.43478"/><path d="M496.21119,291.61307q.00075,41.13017-.00364,82.26036c-.00536,11.566-4.12444,15.65452-15.7175,15.6623-9.35351.0063-18.70728.03439-28.06054-.01323-8.70537-.04433-13.62056-4.74676-13.62934-13.44818q-.08533-84.79417-.06391-169.58847c-.0116-9.16634,6.08031-13.43379,13.81184-13.32719,9.6115.1325,19.2263.01238,28.83966.03329,10.48983.02284,14.80779,4.37,14.81587,14.99122Q496.23519,249.89814,496.21119,291.61307Z" transform="translate(-127.77096 -50.42124)"/><path d="M241.21456,291.46953q-.00423-41.51378.002-83.02757c.00583-11.07085,4.20863-15.23685,15.33351-15.25233,9.482-.01321,18.96425-.03984,28.446.01432,8.71335.0498,13.588,4.74121,13.59679,13.46544q.08565,84.58665.00746,169.17343c-.0076,8.97013-4.83627,13.64272-13.77839,13.68024q-14.80728.06211-29.615.0047c-9.20972-.02815-13.95533-4.66312-13.97154-13.86143Q241.16129,333.568,241.21456,291.46953Z" transform="translate(-127.77096 -50.42124)"/><path d="M368.83969,322.42311c-18.0482,0-36.09692-.07338-54.14393.07107-3.06777.02458-3.98523-.79589-3.95874-3.89184q.20991-24.54659.00674-49.0958c-.02332-3.09176.67758-4.26651,4.07181-4.25494q53.94912.18385,107.899.00514c3.1559-.00975,3.93457,1.00337,3.91357,3.97987-.11633,16.49463-.14831,32.9914.015,49.48522.03232,3.26273-1.18155,3.77586-4.04883,3.75793C404.67668,322.3676,386.758,322.42308,368.83969,322.42311Z" transform="translate(-127.77096 -50.42124)"/><path d="M508.381,291.28558c.00059-21.30607.07761-42.61269-.07728-63.91766-.025-3.44083.90673-4.67461,4.35827-4.28584,2.56546.289,5.19045.00439,7.78566.08267,7.05893.21285,12.304,5.31944,12.31737,12.41372q.10529,55.73334.00646,111.467c-.01232,7.31153-5.25092,12.44342-12.55442,12.56022-3.74912.06-8.58945,1.22613-10.95962-.63162-2.55361-2.00155-.81764-7.06975-.83538-10.78582C508.3317,329.221,508.38032,310.25323,508.381,291.28558Z" transform="translate(-127.77096 -50.42124)"/><path d="M229.01435,291.44417c.00045,21.32108-.08036,42.64275.08166,63.96258.02636,3.46874-.93261,4.79011-4.364,4.26356a14.57444,14.57444,0,0,0-3.50347-.01351c-11.89362,1.09084-16.869-5.83157-16.75028-16.44279.38539-34.44741.144-68.90181.14442-103.35355,0-1.17-.00937-2.34033.0094-3.51012.1288-8.0216,5.19091-13.09766,13.1829-13.20144,2.46891-.032,4.96359.21235,7.4017-.06443,3.27621-.37191,3.86487,1.08522,3.85125,4.00684C228.96786,248.54188,229.01389,269.99312,229.01435,291.44417Z" transform="translate(-127.77096 -50.42124)"/><path class="cls-2" d="M544.87486,291.42482c-.00029-9.08135.075-18.16374-.04947-27.2434-.03414-2.4932.65147-3.36451,3.26044-3.38542,9.67959-.07756,14.61763,4.66039,14.63845,14.43936q.03441,16.15179-.00047,32.30367c-.02261,9.7452-5.00356,14.55578-14.62074,14.52553-2.63255-.00821-3.30263-.92629-3.27226-3.39621C544.9425,309.58841,544.87511,300.50624,544.87486,291.42482Z" transform="translate(-127.77096 -50.42124)"/><path d="M192.55415,291.56332c.00082,8.957-.12111,17.91663.06871,26.86965.06414,3.02536-.98434,3.70472-3.81253,3.63012-9.30276-.24542-14.0851-4.92049-14.11485-14.26165q-.05271-16.55086.00411-33.102c.04271-9.54386,5.98163-14.69967,15.57179-13.90426,2.3839.19775,2.28838,1.5024,2.28669,3.11819Q192.54348,277.73833,192.55415,291.56332Z" transform="translate(-127.77096 -50.42124)"/></svg>