<svg id="Layer_1" data-name="Layer 1" xmlns="http://www.w3.org/2000/svg" viewBox="0 0 481.86957 481.86957"><defs><style>.cls-1{fill:#ffaf78;stroke:#231f20;stroke-miterlimit:10;}.cls-2{fill:#020202;}.cls-3{fill:#010101;}</style></defs><circle class="cls-1" cx="240.93478" cy="240.93478" r="240.43478"/><path d="M401.9289,399.86973c-.64391,22.24263-1.35561,44.48371-1.8582,66.72955-.0748,3.3113-.82374,4.4843-4.38865,4.471q-54.03067-.20108-108.0622-.00258c-3.17228.011-3.867-.9018-3.95429-3.92932q-1.92957-66.935-4.15149-133.86127c-.09922-3.00994.52151-4.002,3.78234-4.01472q58.20006-.22759,116.39831-.82033c3.34691-.033,4.49985.62118,4.36357,4.291-.83078,22.37418-1.38591,44.75859-2.033,67.1396Z" transform="translate(-109.35622 -73.90604)"/><path d="M341.58366,318.58954c-19.46786,0-38.93656-.093-58.40273.088-3.39872.03159-4.19-1.01848-4.27524-4.21531q-1.04452-39.19875-2.43814-78.38763c-.1136-3.19384.85279-4.04443,3.95-4.001,11.40082.15977,22.80646-.02855,34.20746.1251,3.01782.04065,4.12582-.66762,4.02807-3.923-.3672-12.23068-.41493-24.47064-.62523-36.70638-.21221-12.34816-5.84363-21.09234-17.26978-26.07528-14.62273-6.377-29.19816-12.86237-43.79271-19.30394a21.129,21.129,0,0,1-2.63434-1.22926c-2.68946-1.66545-3.99219-3.98143-2.45289-7.02382,1.47415-2.91368,3.99256-3.81792,7.01645-2.5172q12.99378,5.58933,25.92313,11.32818c7.86519,3.47976,15.86411,6.70724,23.51146,10.61812,12.973,6.63438,19.70464,17.55789,20.20865,32.11315q.67125,19.38616.83781,38.78812c.031,3.14473,1.04815,3.95277,4.11519,3.93651,23.0836-.12229,46.16858.00448,69.25189-.14145,3.43764-.02175,4.48353.81379,4.35687,4.37247q-1.37274,38.56288-2.30517,77.14043c-.08758,3.68347-1.193,4.61482-4.807,4.581-19.46655-.1823-38.93569-.08626-58.404-.08626Z" transform="translate(-109.35622 -73.90604)"/><path class="cls-2" d="M341.28581,494.79145c-12.93567-.00052-25.87182-.06029-38.80655.05025-2.56856.02192-3.61711-.45123-3.62665-3.367-.03191-9.75855-.16395-9.75742,9.74747-9.75734,23.78493.00018,47.57029.07022,71.3543-.078,3.49615-.02176,4.86462.59889,4.73062,4.48745-.29826,8.65684-.07143,8.66494-8.76494,8.66515Q358.60291,494.7923,341.28581,494.79145Z" transform="translate(-109.35622 -73.90604)"/><path class="cls-3" d="M411.2689,189.28121c19.56586.01192,35.44085,14.29558,37.85045,34.05626,2.18472,17.91657-10.66131,36.19994-28.41826,40.32312-1.18243.27455-3.38531,1.94292-3.55118-.67005-.1351-2.12758-1.616-5.14614,1.79625-6.46563,1.67724-.64856,3.41454-1.15962,5.047-1.90331a30.24473,30.24473,0,1,0-41.05338-37.81532c-.61308,1.62406.12445,4.33856-3.13946,4.6064-5.68133.46625-6.05435.19378-4.55941-5.2209C379.61446,200.35079,394.44821,189.271,411.2689,189.28121Z" transform="translate(-109.35622 -73.90604)"/><path class="cls-3" d="M403.81291,221.35527c-2.63934-.00236-5.292-.16975-7.91465.03986-3.30612.26425-2.966-1.26571-1.97177-3.38213,3.47972-7.40711,12.05209-11.63463,20.93417-10.3009,8.01022,1.20283,14.897,8.489,16.0601,16.99141,1.07205,7.83641-3.84011,16.742-10.82413,19.973-2.13833.98923-2.69162.47655-2.60767-1.698.18756-4.858.33456-9.71881.40124-14.57984.07086-5.16676-1.75393-6.9643-6.99279-7.03565C408.53628,221.331,406.17444,221.35763,403.81291,221.35527Z" transform="translate(-109.35622 -73.90604)"/></svg>