<svg id="Layer_1" data-name="Layer 1" xmlns="http://www.w3.org/2000/svg" viewBox="0 0 481.86957 481.86957"><defs><style>.cls-1{fill:#00bfff;stroke:#231f20;stroke-miterlimit:10;}</style></defs><circle class="cls-1" cx="240.93478" cy="240.93478" r="240.43478"/><path d="M356.58381,214.45808q-68.34251-.002-136.685.03716c-4.76016.00671-9.16146-.63293-12.54256-4.28327-3.74574-4.044-5.10179-8.68707-2.94709-13.99888,5.2201-12.86871,14.86649-22.10783,25.56608-30.26135,21.60688-16.46534,46.492-25.51528,72.90852-30.29168,38.40322-6.94374,76.85305-6.9473,114.98113,2.03473,29.47528,6.94363,56.28928,19.24585,77.86015,41.26325a68.35631,68.35631,0,0,1,12.46883,16.57179A12.87294,12.87294,0,0,1,497.83525,214.293a60.297,60.297,0,0,1-6.59877.16045Q423.91011,214.46521,356.58381,214.45808Z" transform="translate(-115.73177 -50.1936)"/><path d="M356.85225,381.84619q67.8042.00116,135.60852.0036c12.84568.00207,17.39294,4.55575,17.40908,17.40506.0051,4.06238.092,8.1311-.09446,12.18609a27.48759,27.48759,0,0,1-21.85857,25.36746,36.75892,36.75892,0,0,1-7.05232.74207q-124.18079.05556-248.36154-.01039c-17.3397-.01911-28.94819-11.85837-29.082-29.05621-.03555-4.56991-.1453-9.14917.08405-13.7088a13.28374,13.28374,0,0,1,12.6641-12.80817c2.86533-.20135,5.7526-.11708,8.62988-.11745Q290.82568,381.84078,356.85225,381.84619Z" transform="translate(-115.73177 -50.1936)"/><path d="M410.76592,297.84632c-1.69023.083-3.115.21393-4.53978.21416q-93.91387.014-187.82777-.01071c-14.65289-.00957-25.85613-9.00592-28.38876-22.53084-3.17548-16.958,9.06225-32.8595,26.36977-33.09831,29.09928-.40156,58.20876-.24449,87.31214-.0481,7.8905.05327,15.16016,3.29827,22.26886,6.44092,29.63629,13.10191,56.97651,30.26227,84.06389,47.85427C410.24024,296.808,410.33136,297.14044,410.76592,297.84632Z" transform="translate(-115.73177 -50.1936)"/><path d="M356.40959,353.87255q-74.40984-.00012-148.81974-.00481a48.28238,48.28238,0,0,1-6.08724-.13954,13.97933,13.97933,0,0,1-12.27376-14.42406,13.83532,13.83532,0,0,1,13.5021-13.21285c1.18285-.05525,2.36988-.02682,3.555-.02682q150.34347-.00076,300.687.02056a27.984,27.984,0,0,1,7.04633.53135,13.85675,13.85675,0,0,1-2.19544,27.10327,48.40033,48.40033,0,0,1-6.08648.14795Q431.07342,353.87728,356.40959,353.87255Z" transform="translate(-115.73177 -50.1936)"/><path d="M413.32235,297.15267q13.568-14.66688,27.08088-29.27512c7.00085-7.57056,14.04007-15.10635,20.96809-22.743a7.80975,7.80975,0,0,1,6.5058-2.9361c9.12782.20448,18.26394-.00177,27.39515.10059,16.28322.18251,28.63615,12.35769,28.58711,28.05-.049,15.70121-12.37627,27.649-28.80183,27.69668q-38.812.11277-77.62457-.0043C416.18077,298.03969,414.76029,298.58743,413.32235,297.15267Z" transform="translate(-115.73177 -50.1936)"/></svg>