<svg id="Layer_1" data-name="Layer 1" xmlns="http://www.w3.org/2000/svg" viewBox="0 0 481.86957 481.86957"><defs><style>.cls-1{fill:#ffaf78;stroke:#231f20;stroke-miterlimit:10;}</style></defs><circle class="cls-1" cx="240.93478" cy="240.93478" r="240.43478"/><path d="M527.932,289.46043c.0016,4.63648-.01391,9.273.01209,13.90939a5.72585,5.72585,0,0,1-2.75112,5.12289,9.4379,9.4379,0,0,1-4.95688,1.2104q-152.91673-.01218-305.83346-.01173c-5.182-.00028-7.61177-2.49135-7.61219-7.7288-.00028-3.5176.0957-7.03854-.02677-10.55187-.12426-3.5645,2.76971-7.05212,6.19735-6.9073.84095.0355,1.71631-.09093,2.57653-.0911q35.83987-.00682,71.67975-.00458c3.18-.00034,3.20176-.02807,3.2089-3.23524.00564-2.522-.00783-5.044.00933-7.566.00937-1.376.56555-1.98365,2.0566-1.96733,6.10532.06686,12.21252-.03007,18.31759.04654,4.7777.05994,9.5449-.2965,14.32053-.2233,3.06481.047,3.32034.28624,3.32661,3.254.005,2.3893-.01309,4.77873.00576,7.16791.018,2.283.24634,2.51668,2.51133,2.52007q11.74748.01755,23.495.00454,33.84877.00006,67.69753-.001c3.2679-.00035,3.27977-.01581,3.27982-3.37266.00021-17.78711.08343-35.57491-.06262-53.36083-.03352-4.08592,1.83325-7.17669,6.40547-7.457,4.67314-.28653,9.407-.56522,14.07745.29395a5.49024,5.49024,0,0,1,4.41889,4.55078,20.45993,20.45993,0,0,1,.25359,3.36621q-.0202,26.382-.00756,52.764c.00087,3.10843.11522,3.23257,3.26975,3.21061,3.49346-.02432,3.53812.60755,3.53764-3.57645q-.0046-38.92592.0022-77.85182c.00061-2.25881.10642-4.50483,1.42866-6.47673a6.09,6.09,0,0,1,5.0398-2.30645c4.11461.02047,8.22944-.00581,12.34414.00958a6.71987,6.71987,0,0,1,6.98752,6.221,18.12167,18.12167,0,0,1,.042,2.18731q.00375,39.52107.00238,79.04216c0,2.3594.00194,2.35942,2.34382,2.36214q.19908.00022.39818,0c3.23736-.00026,3.24078-.00026,3.241-3.14144q.00285-32.15443-.00748-64.30887a24.441,24.441,0,0,1,.37478-4.349,5.93357,5.93357,0,0,1,5.15809-5.03729,92.557,92.557,0,0,1,15.09448-.00648,6.335,6.335,0,0,1,5.24584,5.03011,18.32917,18.32917,0,0,1,.22211,3.36687q-.00991,32.75175-.0041,65.50346c.00021,2.94164.005,2.92627,2.99944,2.95021a33.01646,33.01646,0,0,1,3.57344.10428A6.60325,6.60325,0,0,1,527.932,289.46043Z" transform="translate(-126.41945 -65.81486)"/><path d="M303.03705,323.07068q40.31947-.00031,80.639.00063c2.78368.00015,2.7867.00574,2.787,2.69629q.00156,16.42641-.00181,32.85281c-.001,2.58435-.01019,2.59148-2.65333,2.59155q-74.06832.00219-148.1366.002c-.72994,0-1.4607-.00794-2.1896.02287a1.22631,1.22631,0,0,0-1.34715,1.36807c.00723.59718-.0064,1.19454-.00641,1.79181q-.00111,39.42335.01731,78.84672c.00368,3.02147-.47849,5.64609-3.49287,7.181a6.19632,6.19632,0,0,1-8.84512-4.9431c-.06416-.92541-.04353-1.85746-.04358-2.78645q-.00274-58.43817-.00135-116.87631c0-2.7476.00169-2.74764,2.83465-2.74764Q262.81713,323.0709,303.03705,323.07068Z" transform="translate(-126.41945 -65.81486)"/><path d="M309.57955,162.452q34.64488.00033,69.28976.01265c1.43553.0011,2.90236-.16252,4.2453.681a6.29219,6.29219,0,0,1,3.16029,5.20139c.05241.86018.05448,1.72434.05455,2.58666q.00414,39.42333.00051,78.84667c-.00006.79609.01315,1.59575-.05286,2.38766-.315,3.7794-2.64514,6.01988-6.4363,6.20964-.59611.02984-1.19437.02157-1.79167.0216q-68.59289.00136-137.18578.01115c-2.89043.00092-5.5244-.35651-7.30887-3.05628a7.109,7.109,0,0,1-.82032-4.2095c-.03212-8.42877-.01876-16.85772-.01865-25.28662q.00036-28.07415-.02165-56.14825c-.00677-2.77208.57066-5.06852,3.14633-6.5774a7.49126,7.49126,0,0,1,4.05138-.66794q27.17829-.02725,54.3566-.01261Q301.91389,162.45174,309.57955,162.452Z" transform="translate(-126.41945 -65.81486)"/><path d="M514.57834,325.56188c.00708-1.80429-.44573-2.335-2.2996-2.32791-18.319.07076-36.638.04245-54.957.04245-18.38269,0-36.76537.02123-55.14806-.03537-1.61326,0-2.151.38916-2.14394,2.08735q.08487,26.18366,0,52.36023c-.00708,1.72647.41038,2.27129,2.20054,2.25715,8.80926-.09907,17.62559-.04245,26.43485-.04245h52.07719c10.54282,0,21.07851-.04246,31.61425.03537,1.74768.01414,2.22886-.44578,2.22174-2.2147Q514.48287,351.64647,514.57834,325.56188Zm-44.73968,29.29343c-4.24542.04953-8.49085.01414-12.72919.00708-4.18172,0-8.35641.04245-12.53107-.00708a6.18523,6.18523,0,0,1-6.47427-6.09218c-.10613-3.67229,2.34206-6.65824,6.07093-6.729q13.02285-.2335,26.05275-.01414a6.4493,6.4493,0,0,1,6.27814,6.61609q-.00271.106-.009.212A6.49145,6.49145,0,0,1,469.83866,354.85531Z" transform="translate(-126.41945 -65.81486)"/><path d="M514.5713,396.326c.00708-1.91751-.62975-2.28546-2.37743-2.27838-18.25531.05659-36.50359.03537-54.7589.03537q-27.574,0-55.15515-.02123c-1.5-.00708-2.25007.191-2.243,2.0095.07077,16.12554.03537,32.25106.0566,48.38367.00708,4.203,2.11563,6.28323,6.33277,6.28323,33.85018.00708,67.70036-.04954,101.55056.0849a6.79365,6.79365,0,0,0,6.637-6.71484C514.40853,428.18086,514.49344,412.25346,514.5713,396.326Zm-44.54867,29.26511q-12.82113.16978-25.65652-.00708a6.24653,6.24653,0,0,1-6.262-6.75729,6.17528,6.17528,0,0,1,6.47427-6.08512c4.23834-.04953,8.48376-.00708,12.72919-.01414,4.17468,0,8.34937-.04245,12.53109.01414a6.42631,6.42631,0,1,1,.35387,12.8472Q470.1076,425.59113,470.02263,425.59115Z" transform="translate(-126.41945 -65.81486)"/></svg>