<svg id="Layer_1" data-name="Layer 1" xmlns="http://www.w3.org/2000/svg" viewBox="0 0 481.86957 481.86957"><defs><style>.cls-1{fill:#00bfff;stroke:#231f20;stroke-miterlimit:10;}.cls-2{fill:#161616;}</style></defs><circle class="cls-1" cx="240.93478" cy="240.93478" r="240.43478"/><path d="M520.02211,392.62761a97.62491,97.62491,0,0,0-27.64866-11.4039c-5.56231-1.41191-10.473-3.37463-14.2743-8.08359-4.1814-5.19-9.45667-9.37913-14.538-13.69244-9.48-8.037-19.9452-14.21223-32.11712-17.27653-15.469-3.89438-31.24049-5.53905-47.12063-5.97348a428.9811,428.9811,0,0,0-89.71075,7.12938c-1.474.27927-2.94794.5896-4.39089.98523-5.95022,1.63687-9.24726,8.43268-3.4444,13.70021,2.017,1.83082,2.02476,2.98674-.10862,4.77878-4.32108,3.63062-7.91293,7.99048-11.54355,12.30379-5.30631,6.30707-8.937,13.42868-8.09911,21.80706a68.35865,68.35865,0,0,1-1.36536,21.46573c-2.16441,10.10836.3491,14.46822,9.7515,19.11511,1.83859.90766,3.77026,1.64464,5.66316,2.44369.59733.256,1.27228.65941,1.84635.19394.62837-.512.15516-1.218-.00777-1.83082a24.46422,24.46422,0,0,1,.16291-13.0563,25.04868,25.04868,0,1,1,48.27612,13.3851q-.13371.48233-.28663.959c-.96972,3.04879-.96972,3.07209,2.24974,3.07209H448.34042c.7525,0,1.505-.00776,2.25751-.00776,1.39638.00776,1.78427-.38789,1.1947-1.86963a23.12079,23.12079,0,0,1-.31807-16.53955c4.7012-13.33559,17.83508-19.90641,30.60437-16.16717,14.282,4.18145,21.44246,18.1997,16.90414,31.92318-.768,2.33507.00777,2.723,2.12562,2.69194,6.57857-.08532,13.1649-.16293,19.73574.00777,5.19771.13187,8.44822-2.45145,10.68245-6.788a32.40881,32.40881,0,0,0,2.73075-9.705C536.53837,412.57282,531.60444,399.79579,520.02211,392.62761ZM290.6174,391.14587c-2.74625,3.39014-6.08985,5.81832-10.7057,5.84159-2.44369.00777-4.88738-.062-7.32333.03878-1.55155.06982-2.13338-.39565-2.15665-2.03253-.11636-6.52428.768-7.5095,7.19143-7.5095,1.13263,0,2.25751,0,3.38242.00776,2.62985,0,5.25976-.08532,7.88189.031C291.24578,387.62387,292.0836,389.33056,290.6174,391.14587Zm38.32333-15.08109c-5.77178-.69819-11.47373-1.2102-17.10585-2.12561-4.034-.66716-5.3994-3.54531-3.76252-7.28455,3.66166-8.37063,9.17742-14.32082,18.98324-15.32934,5.01927-.51978,10.03078-1.24125,15.07332-1.699,1.51277-.13189,2.3351.06206,1.52828,1.93944-3.30481,7.72673-6.47773,15.50776-9.77478,23.22674C332.78857,377.33707,330.49228,375.32005,328.94073,376.06478Zm16.63264,21.95446c-1.39639.11636-2.80831.02327-4.21246.02327a34.84125,34.84125,0,0,1-3.92542-.02327c-1.94721-.225-3.31256-1.20245-3.48323-3.3591a3.19682,3.19682,0,0,1,3.07207-3.66943,47.36258,47.36258,0,0,1,8.9602-.01551,3.19518,3.19518,0,0,1,3.041,3.70044,3.35793,3.35793,0,0,1-3.45221,3.34362Zm41.985-17.85062c-7.39314-.57406-14.80956-.92317-22.2027-1.44293-7.30782-.512-14.60011-1.218-21.90791-1.64464-2.28078-.13189-2.92467-.5896-1.9472-2.85485,3.28928-7.6414,6.4622-15.33708,9.65065-23.01729a2.93913,2.93913,0,0,1,2.96347-2.04029c11.36511-.45771,22.72249-.15516,34.07983.225,1.66792.05431,2.04806.706,2.02477,2.2032-.06982,4.41417-.02327,8.82834-.02327,13.2425,0,4.228-.09314,8.456.03878,12.67618.06984,2.06359-.481,2.82384-2.67642,2.65317ZM411.46,398.027c-2.71522.08533-5.44594.12413-8.15341-.0155a3.473,3.473,0,0,1-3.60736-3.56081c-.031-2.2032,1.54379-3.32809,3.59957-3.57632a36.30825,36.30825,0,0,1,4.21245-.031,39.094,39.094,0,0,1,3.93319.02328c2.19544.225,3.8401,1.36537,3.73148,3.716A3.499,3.499,0,0,1,411.46,398.027Zm41.65918-16.3456c-1.13263,1.986-3.32809,1.93167-5.29854,1.83082-11.53579-.58183-23.07157-1.23348-34.59961-1.84635-4.40641-.24049-8.82057-.54306-13.227-.62838-2.10234-.03878-2.723-.83009-2.6609-2.87038.13189-4.31331.03878-8.63439.03878-12.95547,0-4.41417.02327-8.82833-.01551-13.2425-.00776-1.505.37238-2.17216,2.11788-2.02476a197.25739,197.25739,0,0,1,25.91868,3.52977c5.027,1.10161,9.12313,3.83233,12.95546,7.013a75.13909,75.13909,0,0,1,13.73125,15.17418C453.34416,377.49223,454.33715,379.54027,453.1192,381.68142Zm27.734.031c-.34911.86886-1.34208.36461-2.07907.58183a24.8754,24.8754,0,0,1-11.2953-4.62362,75.46566,75.46566,0,0,1-16.11286-15.5931c-1.07057-1.39639-2.21871-2.95571-.63614-4.46071,1.55155-1.48174,3.37463-1.03178,5.08909.23272a158.72838,158.72838,0,0,1,19.7047,17.57132c1.44294,1.4895,2.87815,2.96347,4.29779,4.46848C480.31014,380.40913,481.179,380.89788,480.85319,381.71246ZM528.447,412.06857c-1.49724.05431-3.00225.01551-5.027.01551a22.02513,22.02513,0,0,1-9.79806-2.28078,9.22313,9.22313,0,0,1-3.48323-3.18069c-2.35062-3.67717-1.36537-5.96572,2.87815-6.788,3.19624-.62061,6.35361-.21721,9.53427.09309a3.00764,3.00764,0,0,1,2.11785,1.21021,28.23484,28.23484,0,0,1,5.04255,8.99124c.50427,1.49727-.00777,1.8929-1.26452,1.93944Z" transform="translate(-132.52517 -78.27281)"/><path d="M247.1817,242.0107c.00775,2.2032-2.02478,3.17292-5.81057,3.42118-3.204.20945-2.94018-1.70672-2.7928-3.84786-.53528-2.467.66717-3.13413,3.07208-3.01C245.11813,238.7602,247.16618,239.88508,247.1817,242.0107Z" transform="translate(-132.52517 -78.27281)"/><path d="M538.74159,450.07383c-.93094-.06207-1.87736-.02329-2.81607-.02329q-25.79841,0-51.59687-.0233c-1.12488,0-2.37387.34906-3.44445-.64391,10.62038-4.34432,13.23474-13.44418,12.296-19.472-1.36538-8.78953-8.21549-15.22849-16.57838-15.81806a17.89892,17.89892,0,0,0-18.44795,12.715,17.22924,17.22924,0,0,0,1.21021,13.6459c2.23423,4.32882,5.84935,7.02855,10.09282,9.23173h-157.304c10.45746-4.771,14.507-12.28829,12.42792-21.99326-1.64464-7.68017-9.30155-13.64589-17.49374-13.61486-8.11461.02328-15.88014,6.17517-17.40842,13.7933-1.9084,9.50326,2.273,17.14463,11.86937,21.49677a2.451,2.451,0,0,1-2.26528.65939c-17.39291.01553-34.778-.00776-52.16317.05426-2.11786.00777-2.45145-.93089-2.45145-2.74623q.05819-63.57093-.00776-127.14968c0-1.95494.60511-2.6454,2.57558-2.61436,6.10536.09309,12.21848.062,18.32383.01551,6.57081-.03878,10.10061-3.53754,10.10837-10.09285q.02323-58.07849,0-116.15694c0-6.81907-3.18843-10.12388-9.92217-10.14715q-24.66969-.08145-49.33934.00775c-6.47774.02327-9.68169,3.25826-9.68945,9.7515q-.04659,58.35774,0,116.71548c.00775,6.55532,3.40562,9.87564,9.92217,9.92218,6.02.04655,12.03228.10086,18.04454-.031,2.31181-.04655,3.041.61287,3.041,3.01q-.10471,63.29163,0,126.58336c.00775,2.498-.89991,2.96347-3.10311,2.94017-8.26977-.10085-16.53955-.04654-24.80931-.03878a9.7862,9.7862,0,0,0-2.529.12411c-1.84635.4965-3.32807,1.52053-3.13413,3.70823a3.48077,3.48077,0,0,0,3.5453,3.32034c1.11712.10086,2.24975.04655,3.38239.04655H535.58418c1.03179,0,2.07131-.0233,3.1031-.00777,2.3351.0233,3.77026-1.13265,4.07283-3.40567C543.03161,451.81933,541.26286,450.24448,538.74159,450.07383Zm-297.704-195.674c-1.7998-.08533-2.6454.4577-2.4592,2.3661a21.31648,21.31648,0,0,1,0,3.37463c-.194,3.60736-2.242,5.55456-5.72524,5.52352-3.4522-.03878-5.48474-2.08684-5.50024-5.702q-.04654-12.39306,0-24.786c.01551-3.50652,1.82307-5.39941,5.29855-5.58559,1.86962-.10085,3.75475-.02327,5.63213-.02327,4.29779.09309,8.62662-.17067,12.75376,1.52828,5.01151,2.07132,8.05255,6.49324,7.8043,11.53578-.24825,4.87964-3.972,9.26277-8.9059,10.79882A25.66177,25.66177,0,0,1,241.03755,254.39985ZM308.87917,438.3441c-3.78579.57407-6.85785-1.03953-7.75776-4.33658a6.44292,6.44292,0,0,1,3.94094-7.99825c3.04879-1.24125,6.245.23272,8.06032,3.70044.65165,2.14115-.13189,4.11937-.66716,6.12863-1.28005.706-1.86188,2.24974-3.57636,2.50576Zm166.52034.10086a6.08758,6.08758,0,0,1-6.466-5.684q-.01576-.2452-.01174-.49113a6.38461,6.38461,0,0,1,6.12675-6.6325l.00962-.00038a6.62046,6.62046,0,0,1,6.726,6.43893,6.31766,6.31766,0,0,1-6.26563,6.36924q-.05952.00049-.119-.00015Z" transform="translate(-132.52517 -78.27281)"/><path class="cls-2" d="M247.1817,242.0107c.00775,2.2032-2.02478,3.17292-5.81057,3.42118-3.204.20945-2.94018-1.70672-2.7928-3.84786-.53528-2.467.66717-3.13413,3.07208-3.01C245.11813,238.7602,247.16618,239.88508,247.1817,242.0107Z" transform="translate(-132.52517 -78.27281)"/></svg>