<?xml version="1.0" encoding="utf-8"?>
<!-- Generator: Adobe Illustrator 25.4.1, SVG Export Plug-In . SVG Version: 6.00 Build 0)  -->
<svg version="1.1" id="Layer_1" xmlns="http://www.w3.org/2000/svg" xmlns:xlink="http://www.w3.org/1999/xlink" x="0px" y="0px"
	 viewBox="0 0 481.9 481.9" style="enable-background:new 0 0 481.9 481.9;" xml:space="preserve">
<style type="text/css">
	.st0{fill:#FAFAD2;stroke:#231F20;stroke-miterlimit:10;}
	.st1{fill:#5E5E5E;}
	.st2{fill:#ACACAC;}
	.st3{fill:#E4E4E4;}
	.st4{fill:#C7C7C7;}
	.st5{fill:#8E8E8E;}
	.st6{fill:#767676;}
</style>
<g id="NTcX6w.tif">
	<g>
		<circle class="st0" cx="240.9" cy="240.9" r="240.4"/>
		<path class="st1" d="M394.6,372.6c-0.6,0-1.1,0.1-1.7,0.1c-1.9-1.6-2.6-3.9-2.5-6.2c0.2-12.2-1.9-24.6,1.4-36.7
			c0.7-1.1,1.6-1.4,2.8-0.9C394.6,343.5,394.6,358,394.6,372.6z"/>
		<path class="st2" d="M394.6,222.4c0,12.8,0,25.6,0,38.4c-1.1,0.5-2.1,0.3-2.7-0.8c-2.6-12.3-2.6-24.5,0-36.8
			C392.5,222.2,393.4,221.9,394.6,222.4z"/>
		<path class="st3" d="M393.1,149c0.5-0.1,1-0.1,1.5,0c0,12.2,0,24.4,0,36.7c-1.2,0.5-2.1,0.2-2.8-0.9
			C389.8,172.8,387.8,160.8,393.1,149z"/>
		<path class="st4" d="M393.1,185.7c0.5-0.1,1-0.1,1.5,0c0,12.2,0,24.4,0,36.7l-0.7-0.1l-0.7,0C388.2,210.1,388.2,197.9,393.1,185.7
			z"/>
		<path class="st5" d="M393.1,260.8c0.5,0,1,0,1.5,0.1c0,12.2,0,24.4,0,36.7c-1.2,0.5-2.1,0.2-2.8-0.9
			C389.8,284.6,387.8,272.5,393.1,260.8z"/>
		<path class="st6" d="M393.1,297.4c0.5,0,1,0,1.5,0.1c0,10.5,0,21,0,31.4c-0.5,0-1-0.1-1.5-0.1
			C388.4,318.4,388.4,307.9,393.1,297.4z"/>
		<path d="M393.1,297.4c0,10.5,0,20.9,0,31.4c-0.1,14.6-0.1,29.2-0.2,43.8c-2.8,8.6-8.7,11.5-17.5,10.3c-20.4-2.9-40.9-5.5-61.4-8.1
			c-5-0.6-10-1.4-9.5-7.5c0.5-7,6.6-5.1,10.9-5.1c10.8,0.2,21.5,0.5,32.3,1.1c4.3,0.2,7,0.2,7.1-5.5c0.1-5.3-1.9-6.2-6.5-6.1
			c-11.3,0.2-22.7-0.1-34-0.1c-4.5,0-9.4,0.6-9.4-5.9c0-6.5,5.2-4.9,9-4.9c11.9,0,23.9,0,35.8,0.3c4.2,0.1,5.4-1,5.5-5.3
			c0.1-4.4-1.5-5.3-5.6-5.3c-12.5,0.2-25-0.1-37.5-0.1c-4.3,0-8-0.8-7.8-5.8c0.2-4.4,3.4-6.2,7.9-6.2c12.5,0.1,25,0,37.5,0
			c3.1,0,5.6,0.3,5.6-4.3c0-4.2-1.3-5.6-5.5-5.6c-12.5,0-25-0.4-37.5-0.4c-4.1,0-8-0.4-8.1-5.5c0-5.4,4-6.4,8.5-6.3
			c11.9,0.2,23.9,0.3,35.8,0.7c3.8,0.1,6.5,0.1,6.7-5.2c0.1-5.5-2.8-5.2-6.5-5.2c-12.2-0.2-24.4-0.6-36.7-0.8
			c-3.8-0.1-7.4-0.6-7.4-5.2c-0.1-4.8,3.1-6.2,7.6-6.1c12.5,0.2,25,0,37.5,0.3c4.2,0.1,6.3-0.6,6.3-5.6c0-4.9-2.5-4.9-6-4.8
			c-12.8,0.1-25.6,0.1-38.4,0.2c-4.3,0.1-7.8-0.6-7.5-5.9c0.2-4.7,3.5-5.3,7.4-5.3c11.6,0.1,23.3,0.2,34.9-0.1
			c3.9-0.1,9.8,2.7,9.7-5.7c-0.1-8.7-6.3-5.1-10-5.3c-11.3-0.6-22.7-0.6-34-0.6c-4.1,0-8-0.3-7.8-5.6c0.2-5.2,4.2-5.4,8.2-5.4
			c12.2,0,24.5-0.4,36.7,0c5.4,0.2,6.1-2.4,6.5-6.6c0.5-6.1-4-3.7-6.5-3.8c-12.2-0.5-24.4-0.5-36.7-0.8c-3.8-0.1-8.3,0.3-8.3-5.2
			c0.1-5.6,4.5-5.9,8.8-5.9c12.2,0,24.4-0.2,36.7,0.1c4.6,0.1,5.8-1.3,6-5.8c0.1-4.9-2.3-4.9-5.8-4.9c-12.5,0-25-0.3-37.5-0.3
			c-4.2,0-8-0.9-8-5.8c0-4.9,3.7-5.8,8-5.8c12.2,0.1,24.4,0.1,36.7,0c3.2,0,7.1,1.4,7.3-4.5c0.2-6-3.7-4.7-6.9-4.7
			c-12.2,0-24.4,0-36.7,0.1c-4.4,0-8.5-0.2-8.4-6.1c0.1-5.6,3.9-6.2,8.4-6.2c12.5,0.1,25,0.1,37.5,0c3,0,6.4,1.1,6.4-4.4
			c0-4.8-1.8-5.8-6.2-5.8c-12.5,0.2-25-0.1-37.5,0c-4.3,0-7.9-0.9-8.1-5.6c-0.3-5.3,3.9-5.5,7.9-5.6c12.2-0.2,24.4-0.5,36.7-0.6
			c3.7,0,6.8,0.2,6.8-5.2c0.1-6.1-3.9-4.6-7.1-4.6c-11.9-0.2-23.9-0.2-35.8-0.3c-4.1,0-8.8,0.3-9-5.5c-0.2-6.8,5.1-5.7,9.4-5.7
			c11.9,0,23.9-0.2,35.8,0.2c4.8,0.1,6.5-1.1,6.7-6.2c0.2-6.1-3.8-4.6-6.9-4.7c-12.2-0.1-24.4-0.2-36.7,0c-4.3,0.1-7.8-0.8-8.1-5.6
			c-0.3-4.7,2.8-6.1,7.1-6.9c21.2-3.7,42.3-7.9,63.4-11.6c11-1.9,17.9,4,18.1,15.4c0.3,15.7,0.3,31.4,0.4,47.1c0,12.2,0,24.4,0,36.7
			c0,12.2,0,24.4,0,36.7c0,12.8,0,25.6,0,38.4C393.1,273,393.1,285.2,393.1,297.4z"/>
		<path d="M228.7,312.1c17.8-18.8,37.2-18.3,52.4,1.3c13.1,16.8,14.2,36.1,7.3,55.4c-5.6,15.8-27.5,20.5-41.2,9.8
			c-5.9-4.6-9.8-10.6-12.9-17.3c-13-28.2-26-56.3-38.9-84.5c-1.7-3.7-3.6-7.2-7.3-9.5c-9-5.4-14.3-13.6-18.8-23.1
			c-18.7-39.9-38.1-79.5-57-119.3c-5.7-12.1-4.3-24.3,1.7-36c1-2,2.1-4.9,4.6-4.8c2.7,0.1,2.7,3.3,3.6,5.2
			c33.9,70.9,67.6,141.8,101.5,212.8C225.1,305.2,226.7,308.2,228.7,312.1z"/>
		<path d="M259.2,82.2c11.4,15.4,10.9,31,3.6,46.1c-18.2,37.8-37.1,75.2-56.3,113.9c-4.4-8.2-8.5-15.8-12.6-23.3
			c-1.3-2.4-0.5-4.4,0.6-6.5C215.9,169.4,237.3,126.4,259.2,82.2z"/>
		<path d="M154.7,310.5c7-12.7,13.8-25,20.7-37.7c6.7,8.5,9,16.1,3.1,26.6C168,318.1,159.4,337.7,150,357
			c-5.3,10.8-13.7,18.7-23.9,24.6c-10.3,5.9-19.4,4.2-27.4-4.5c-4-4.4-6.6-9.4-8.1-15.2c-4.8-19.5,5.5-47.3,21.9-58.9
			c11.4-8.1,24.6-7.6,35.3,1.3C150.1,306.1,152.1,308.1,154.7,310.5z"/>
		<path class="st0" d="M281,351.6c0.4,3.6-0.6,7.6-1.9,11.4c-3.5,9.7-11.5,12.9-20.9,8.4c-13.9-6.6-25.7-31.1-22.1-46
			c3.3-13.3,16.6-18.1,27.8-10.1C273.6,322.3,280.9,337.7,281,351.6z"/>
		<path class="st0" d="M101.2,346.6c0.5-10.1,5.1-21.7,15.2-30.7c5.4-4.8,11.6-7.9,19.1-4.3c7.3,3.5,10.9,9.6,11,17.4
			c0.1,12.7-4.4,24-12.6,33.5c-5.6,6.5-12.4,12-21.9,9.4C105,370,101.1,361.3,101.2,346.6z"/>
	</g>
</g>
</svg>
