<svg id="Layer_1" data-name="Layer 1" xmlns="http://www.w3.org/2000/svg" viewBox="0 0 481.86957 481.86957"><defs><style>.cls-1{fill:#f08080;stroke:#231f20;stroke-miterlimit:10;}.cls-2{fill:#040404;}.cls-3{fill:#060606;}</style></defs><circle class="cls-1" cx="240.93478" cy="240.93478" r="240.43478"/><path d="M508.27486,295.62393c1.70779-36.92575-2.21555-73.38224-9.7315-109.4464-2.231-10.68539-3.1079-20.78612.62312-31.2715,2.331-6.53125,3.44639-13.49329,5.24654-20.84-4.9696,1.22316-9.393,2.10784-13.68559,3.40794-13.17788,4.008-26.2865,7.3313-39.41823-.16155a7.10405,7.10405,0,0,0-7.08515-.03847c-11.10079,5.8312-22.17852,5.81581-33.33319.12309-2.39247-1.22316-4.82342-1.077-7.48517-.13847-16.632,5.90043-16.67045,5.87735-33.30242.06154a10.46179,10.46179,0,0,0-7.48517.01539c-16.2781,5.87734-16.31656,5.87734-32.57928.2-2.96176-1.03853-5.67734-1.477-8.56987-.00769-10.59306,5.36961-21.20923,5.74657-31.88693.14616-3.03869-1.60011-6.05428-1.33855-9.30067-.00769-4.43878,1.81551-9.13913,2.99253-13.67022,4.59264a8.002,8.002,0,0,1-4.93113.12308c-10.20074-2.60788-20.45532-5.04651-30.64837-7.70825-2.70789-.70774-2.80789-.01538-2.19247,2.33863,2.50783,9.56223,4.97728,19.13985,7.16971,28.779.76928,3.40793,1.86936,4.76957,5.79272,4.76188q107.67322-.24232,215.36178-.11539c1.56167,0,3.1387-.09231,4.685.05386a6.58594,6.58594,0,0,1,6.07738,6.08506c.20773,3.58488-1.50011,5.9235-4.89265,7.08513-1.78475.60773-3.61565.377-5.43116.377q-109.0464.02308-218.10043.00769c-6.08506,0-6.0389.00769-7.26206,6.09274-6.462,32.20234-8.76218,64.75084-8.216,97.53015.45388,27.54815,3.04638,54.84244,9.593,81.69054.88467,3.631,2.39248,4.55418,6.0235,4.54648q108.85019-.173,217.70808-.08461a30.51539,30.51539,0,0,1,4.67728.14617,6.744,6.744,0,0,1-.70773,13.43943c-1.56168.10772-3.131.03846-4.69263.03846H241.26318c-1.04622,0-2.09246.06153-3.131-.01538a2.27133,2.27133,0,0,0-2.68482,2.13092c-2.0463,10.47768-4.09261,20.94768-6.22352,31.40228-.49235,2.44632.40772,2.61557,2.44632,2.0463,3.62335-1.02314,7.33131-1.76167,10.97-2.76943,12.37782-3.42334,24.73256-7.539,37.18731-.29234.2154.13079.51543.13079.73083.25386a8.82535,8.82535,0,0,0,8.916.02308c10.80852-5.685,21.54772-5.21577,32.26388.2077a8.13436,8.13436,0,0,0,7.80825.0077c11.30853-5.962,22.52471-5.39271,33.72552.26155a7.16643,7.16643,0,0,0,6.00043.10771c5.02344-1.80013,10.13151-3.32332,15.155-5.10807a6.25968,6.25968,0,0,1,4.48493-.02308c6.01583,2.06938,12.10856,5.46962,18.17055,5.46962,6.05428,0,12.13934-3.38486,18.15516-5.46194a6.42634,6.42634,0,0,1,4.48493.05385c6.02351,2.03093,12.11624,5.42346,18.17057,5.40809,6.06968-.01538,12.147-3.43872,18.17054-5.5158a8.04037,8.04037,0,0,1,4.92346-.17694c9.68533,2.51556,19.43218,4.82342,29.09442,7.42361,3.25406.8693,3.80027.03845,3.15405-3.02329-2.22325-10.43923-4.36959-20.89383-6.33891-31.37921-.63852-3.36948-1.81551-6.59279-.8847-10.32383A421.05509,421.05509,0,0,0,508.27486,295.62393Zm-211.54612,8.59292c-12.36244-12.56244-15.64728-34.8333-7.63133-50.54214,6.63895-13.01634,19.60143-18.37825,33.94862-13.62406,7.14668,2.36172,13.94717,5.75428,21.07844,8.16217,18.27056,6.162,36.17185,3.94644,53.75005-3.07715,1.63858-.66162,3.31562-1.23086,4.97728-1.84628-9.96227,19.7322-17.37048,40.37217-31.50229,57.27339C348.54019,327.84163,315.11468,322.88742,296.72874,304.21685Zm109.22331,13.1394a90.57769,90.57769,0,0,1-27.1558,1.96937c-1.76168-.11539-3.50025-.5-6.12352-.89237a104.01083,104.01083,0,0,0,17.032-19.71682c7.7698-11.7547,13.67022-24.50946,19.89374-37.095,2.87712-5.83118,5.70042-11.70084,9.54685-16.97816,5.65426-7.74672,13.85486-8.43138,20.91683-1.78475,4.17727,3.93874,6.1928,8.993,6.97744,14.48566,4.008,28.09438-13.43169,53.4116-41.08753,60.01209Z" transform="translate(-125.37356 -37.73905)"/><path class="cls-2" d="M332.34217,292.31694a6.72023,6.72023,0,0,1-13.42885.54476,6.56485,6.56485,0,0,1,6.07172-7.02343q.26856-.0195.538-.017a6.637,6.637,0,0,1,6.81805,6.45085Z" transform="translate(-125.37356 -37.73905)"/><path class="cls-3" d="M339.09894,278.90322a6.62433,6.62433,0,0,1-6.57929-6.669l.00064-.05759a6.66741,6.66741,0,1,1,6.60732,6.727Z" transform="translate(-125.37356 -37.73905)"/><path class="cls-2" d="M311.90086,278.89479a6.75569,6.75569,0,1,1,.22838.00176Q312.015,278.8976,311.90086,278.89479Z" transform="translate(-125.37356 -37.73905)"/></svg>