<svg id="Layer_1" data-name="Layer 1" xmlns="http://www.w3.org/2000/svg" viewBox="0 0 481.86957 481.86957"><defs><style>.cls-1{fill:#ffaf78;stroke:#231f20;stroke-miterlimit:10;}.cls-2{fill:#010000;}</style></defs><circle class="cls-1" cx="240.93478" cy="240.93478" r="240.43478"/><path d="M350.9102,224.66933c-.022-5.99107-2.28615-8.21109-8.3875-8.21842-10.262-.02206-20.53136-.00736-30.79334-.00736H281.25942c-6.46154.01469-8.48307,1.99212-8.49776,8.30663q-.03309,11.30217,0,22.60435c.022,5.85875,2.29351,8.17432,8.09346,8.18167q30.95144.03309,61.91755,0c5.71173-.00735,8.11552-2.46992,8.13757-8.25519Q350.9543,235.96783,350.9102,224.66933Zm-13.07009,7.59358a55.92506,55.92506,0,0,0-.0147,7.52742c.11762,1.99948-.58073,2.64637-2.5949,2.617-7.85823-.09556-15.71646-.03674-23.57469-.03674-7.7553,0-15.50327-.08085-23.25124.05146-2.18325.03674-2.8963-.61748-2.74927-2.77132.22052-3.24916-1.0218-7.476.59543-9.50485,1.70544-2.14653,6.116-.66159,9.33579-.68364,13.0995-.08085,26.199.01469,39.29848-.08085,2.22733-.01472,3.14621.52189,2.9551,2.88158Z" transform="translate(-122.91465 -40.70428)"/><path d="M481.17743,263.02688c-.02939-4.99867-2.41846-7.4098-7.4245-7.46127-6.22628-.05877-12.45261-.01469-18.67155-.01469-6.11605,0-12.23207-.02941-18.34811.01469-5.31479.03675-7.60094,2.27146-7.63771,7.53479q-.06616,11.95274,0,23.91283c.03674,5.17511,2.44054,7.54214,7.7112,7.56419q18.34809.06617,36.69622,0c5.16042-.02205,7.65238-2.54344,7.67445-7.63771Q481.23248,274.987,481.17743,263.02688ZM465.7256,281.49261c-3.5873-.08085-7.18195-.02205-10.77658-.02205s-7.19665-.05146-10.78394.02205c-1.51431.03675-2.1612-.42635-2.11709-2.02888.09556-3.04333.08085-6.094.00735-9.14466-.03674-1.44815.55133-1.86716,1.926-1.8598q11.10368.06615,22.21473.00736c1.57313-.00736,2.095.61748,2.05091,2.1465-.0882,2.83014-.125,5.66762.00736,8.49041.08826,1.95537-.77916,2.42584-2.5287,2.3891Zm15.45183-18.46573c-.02939-4.99867-2.41846-7.4098-7.4245-7.46127-6.22628-.05877-12.45261-.01469-18.67155-.01469-6.11605,0-12.23207-.02941-18.34811.01469-5.31479.03675-7.60094,2.27146-7.63771,7.53479q-.06616,11.95274,0,23.91283c.03674,5.17511,2.44054,7.54214,7.7112,7.56419q18.34809.06617,36.69622,0c5.16042-.02205,7.65238-2.54344,7.67445-7.63771Q481.23248,274.987,481.17743,263.02688ZM465.7256,281.49261c-3.5873-.08085-7.18195-.02205-10.77658-.02205s-7.19665-.05146-10.78394.02205c-1.51431.03675-2.1612-.42635-2.11709-2.02888.09556-3.04333.08085-6.094.00735-9.14466-.03674-1.44815.55133-1.86716,1.926-1.8598q11.10368.06615,22.21473.00736c1.57313-.00736,2.095.61748,2.05091,2.1465-.0882,2.83014-.125,5.66762.00736,8.49041.08826,1.95537-.77916,2.42584-2.5287,2.3891Zm15.45183-18.46573c-.02939-4.99867-2.41846-7.4098-7.4245-7.46127-6.22628-.05877-12.45261-.01469-18.67155-.01469-6.11605,0-12.23207-.02941-18.34811.01469-5.31479.03675-7.60094,2.27146-7.63771,7.53479q-.06616,11.95274,0,23.91283c.03674,5.17511,2.44054,7.54214,7.7112,7.56419q18.34809.06617,36.69622,0c5.16042-.02205,7.65238-2.54344,7.67445-7.63771Q481.23248,274.987,481.17743,263.02688ZM465.7256,281.49261c-3.5873-.08085-7.18195-.02205-10.77658-.02205s-7.19665-.05146-10.78394.02205c-1.51431.03675-2.1612-.42635-2.11709-2.02888.09556-3.04333.08085-6.094.00735-9.14466-.03674-1.44815.55133-1.86716,1.926-1.8598q11.10368.06615,22.21473.00736c1.57313-.00736,2.095.61748,2.05091,2.1465-.0882,2.83014-.125,5.66762.00736,8.49041.08826,1.95537-.77916,2.42584-2.5287,2.3891Zm15.45183-18.46573c-.02939-4.99867-2.41846-7.4098-7.4245-7.46127-6.22628-.05877-12.45261-.01469-18.67155-.01469-6.11605,0-12.23207-.02941-18.34811.01469-5.31479.03675-7.60094,2.27146-7.63771,7.53479q-.06616,11.95274,0,23.91283c.03674,5.17511,2.44054,7.54214,7.7112,7.56419q18.34809.06617,36.69622,0c5.16042-.02205,7.65238-2.54344,7.67445-7.63771Q481.23248,274.987,481.17743,263.02688ZM465.7256,281.49261c-3.5873-.08085-7.18195-.02205-10.77658-.02205s-7.19665-.05146-10.78394.02205c-1.51431.03675-2.1612-.42635-2.11709-2.02888.09556-3.04333.08085-6.094.00735-9.14466-.03674-1.44815.55133-1.86716,1.926-1.8598q11.10368.06615,22.21473.00736c1.57313-.00736,2.095.61748,2.05091,2.1465-.0882,2.83014-.125,5.66762.00736,8.49041.08826,1.95537-.77916,2.42584-2.5287,2.3891Zm15.45183-18.46573c-.02939-4.99867-2.41846-7.4098-7.4245-7.46127-6.22628-.05877-12.45261-.01469-18.67155-.01469-6.11605,0-12.23207-.02941-18.34811.01469-5.31479.03675-7.60094,2.27146-7.63771,7.53479q-.06616,11.95274,0,23.91283c.03674,5.17511,2.44054,7.54214,7.7112,7.56419q18.34809.06617,36.69622,0c5.16042-.02205,7.65238-2.54344,7.67445-7.63771Q481.23248,274.987,481.17743,263.02688ZM465.7256,281.49261c-3.5873-.08085-7.18195-.02205-10.77658-.02205s-7.19665-.05146-10.78394.02205c-1.51431.03675-2.1612-.42635-2.11709-2.02888.09556-3.04333.08085-6.094.00735-9.14466-.03674-1.44815.55133-1.86716,1.926-1.8598q11.10368.06615,22.21473.00736c1.57313-.00736,2.095.61748,2.05091,2.1465-.0882,2.83014-.125,5.66762.00736,8.49041.08826,1.95537-.77916,2.42584-2.5287,2.3891Zm15.45183-18.46573c-.02939-4.99867-2.41846-7.4098-7.4245-7.46127-6.22628-.05877-12.45261-.01469-18.67155-.01469-6.11605,0-12.23207-.02941-18.34811.01469-5.31479.03675-7.60094,2.27146-7.63771,7.53479q-.06616,11.95274,0,23.91283c.03674,5.17511,2.44054,7.54214,7.7112,7.56419q18.34809.06617,36.69622,0c5.16042-.02205,7.65238-2.54344,7.67445-7.63771Q481.23248,274.987,481.17743,263.02688ZM465.7256,281.49261c-3.5873-.08085-7.18195-.02205-10.77658-.02205s-7.19665-.05146-10.78394.02205c-1.51431.03675-2.1612-.42635-2.11709-2.02888.09556-3.04333.08085-6.094.00735-9.14466-.03674-1.44815.55133-1.86716,1.926-1.8598q11.10368.06615,22.21473.00736c1.57313-.00736,2.095.61748,2.05091,2.1465-.0882,2.83014-.125,5.66762.00736,8.49041.08826,1.95537-.77916,2.42584-2.5287,2.3891Zm54.46364-33.18979a29.59161,29.59161,0,0,0-4.18273-15.29745c-6.57911-11.04857-16.356-16.56182-29.235-16.56182-26.75769.00736-53.52269-.05146-80.28036.07351-2.96245.0147-3.79312-.81595-3.57257-3.66081a32.48822,32.48822,0,0,0-1.33054-12.30559c-4.43265-14.18009-16.3854-23.00866-31.71959-23.18507-12.67313-.147-25.34629.03675-38.01206-.07352-11.59989-.10291-19.74482-8.23313-20.03885-19.75951-.15437-6.31452-.15437-6.31452,6.01311-6.31452h5.57206c15.40037,0,30.80072-.0294,46.20109.01471,3.036.00735,5.38094-1.11,6.67471-3.82252a6.05009,6.05009,0,0,0-1.0218-6.68207c-1.71278-2.14649-4.08716-2.46259-6.66-2.46259q-50.46833.04414-100.92933.0294a35.25907,35.25907,0,0,0-8.15227.58808c-15.56943,3.66816-25.61826,15.95169-25.83144,31.94748-.17643,12.99658-.05142,25.99316-.05142,38.98975-.00734,6.4836,0,6.4836-6.45418,6.638-11.44551.26463-19.67129,8.60069-19.686,20.0903q-.03307,45.05437.00735,90.10867a19.47991,19.47991,0,0,0,16.231,19.69336,36.55673,36.55673,0,0,0,7.51274.31608c1.84506-.0441,2.46994.55133,2.42583,2.43319-.11026,5.24127.03676,10.48988-.05146,15.73115-.19848,11.95275,4.63114,21.33262,14.39327,28.125,1.72014,1.19086,1.53636,2.05828.7204,3.68287a19.10068,19.10068,0,0,0-1.19826,14.6138c2.80073,9.18876,13.38618,15.52533,22.40588,13.32739,10.61486-2.59493,17.68652-12.66578,15.371-22.44265-.72041-3.036,0-3.44027,2.764-3.43293q44.40372.12131,88.80017.05146,44.56917,0,89.13833-.04411c2.367-.00735,3.15357.24258,2.59493,3.02128a19.45057,19.45057,0,0,0,32.24151,17.99525,18.99331,18.99331,0,0,0,4.63112-22.156c-1.38935-2.88894-.69835-3.80781,1.58049-5.4912,8.26252-6.1381,13.04068-14.45944,13.07743-24.83171.13967-39.65129.06613-79.30263.05141-118.94663Zm-286.557,9.77685v23.57469c0,16.26042-.04411,32.52085.0441,48.78128.01471,2.514-.60279,3.39616-3.27119,3.35941-7.90234-.10292-9.89447-1.94067-9.89447-9.83565v-85.132c0-7.82882,4.13862-11.07062,11.79837-9.40928,1.91862.41165,1.28643,1.7569,1.29378,2.79337C233.65426,240.83419,233.63221,249.45693,233.63221,258.07967Zm12.99659-86.3523c.00734-12.21737,8.29928-20.45051,20.61222-20.502,9.28433-.03675,18.576.11026,27.853-.07351,2.85955-.05881,3.74166.64689,3.6314,3.59464-.44107,11.99685,3.64609,22.031,13.51851,29.30847a31.37447,31.37447,0,0,0,18.94354,6.24835c12.6658.03676,25.33893,0,38.01206.0294,12.43792.02206,20.78865,8.24784,20.8107,20.70045.05147,31.13151-.01469,62.263.08085,93.3872.00736,2.69047-.85272,3.23444-3.33736,3.21974-22.93515-.08085-45.87764-.0441-68.8128-.0441-22.722,0-45.44394-.0441-68.16591.0588-2.5655.01469-3.21974-.64689-3.21974-3.21239Q246.68761,238.08489,246.6288,171.72737ZM266.109,411.81131a6.5,6.5,0,1,1,.11957-12.99954q.07255.00068.14506.003a6.49992,6.49992,0,0,1-.26463,12.99658Zm123.98209-29.08795c.0147,2.492-.68363,3.09477-3.10948,3.09477-40.18061-.07351-80.35387-.02941-120.53448-.07351a19.39326,19.39326,0,0,1-19.80362-19.6272c-.07352-14.18744.0441-28.38224-.08821-42.577-.02205-2.5655.838-3.00656,3.17564-2.9992,22.81754.08821,45.63507.05146,68.45259.05146,22.60435,0,45.20134.08085,67.79835-.08085,3.42558-.02941,4.15332.97767,4.12391,4.24152C389.95139,344.07911,389.9808,363.39756,390.09106,382.72336Zm97.62138,29.08795a6.49848,6.49848,0,0,1,.00525-12.997l.06825.00038a6.50088,6.50088,0,0,1-.0735,12.99658Zm19.52428-46.07612c-.03675,11.85718-8.57126,20.00945-20.46523,20.01681-26.86792.02941-53.72851-.02205-80.5891.07351-2.52875.00736-3.2859-.57338-3.27855-3.205.11026-25.11838.06616-50.23678.06616-75.34783,0-24.89786.0441-49.79572-.06616-74.69359-.00735-2.639.75716-3.21238,3.27855-3.205,26.86792.0882,53.72849.03674,80.59646.06615,11.90864.0147,20.42112,8.13757,20.45787,20.00209q.17646,58.15379,0,116.29289ZM473.75289,255.56561c-6.22629-.05877-12.45261-.01469-18.67156-.01469-6.116,0-12.23207-.02941-18.34811.01469-5.31479.03675-7.60094,2.27146-7.63771,7.53479q-.06612,11.95274,0,23.91283c.03675,5.17511,2.44054,7.54214,7.7112,7.56419q18.3481.06617,36.69622,0c5.16043-.02205,7.65238-2.54344,7.67446-7.63771q.05511-11.95273,0-23.91283C481.148,258.02821,478.75892,255.61708,473.75289,255.56561Zm-8.02729,25.927c-3.5873-.08085-7.18195-.02205-10.77658-.02205s-7.19665-.05146-10.78394.02205c-1.51431.03675-2.1612-.42635-2.11709-2.02888.09556-3.04333.08085-6.094.00735-9.14466-.03674-1.44815.55133-1.86716,1.926-1.8598q11.10368.06615,22.21473.00736c1.57313-.00736,2.095.61748,2.05091,2.1465-.0882,2.83014-.125,5.66762.00736,8.49041.08826,1.95537-.77916,2.42584-2.5287,2.3891Zm15.45183-18.46573c-.02939-4.99867-2.41846-7.4098-7.4245-7.46127-6.22628-.05877-12.45261-.01469-18.67155-.01469-6.11605,0-12.23207-.02941-18.34811.01469-5.31479.03675-7.60094,2.27146-7.63771,7.53479q-.06616,11.95274,0,23.91283c.03674,5.17511,2.44054,7.54214,7.7112,7.56419q18.34809.06617,36.69622,0c5.16042-.02205,7.65238-2.54344,7.67445-7.63771Q481.23248,274.987,481.17743,263.02688ZM465.7256,281.49261c-3.5873-.08085-7.18195-.02205-10.77658-.02205s-7.19665-.05146-10.78394.02205c-1.51431.03675-2.1612-.42635-2.11709-2.02888.09556-3.04333.08085-6.094.00735-9.14466-.03674-1.44815.55133-1.86716,1.926-1.8598q11.10368.06615,22.21473.00736c1.57313-.00736,2.095.61748,2.05091,2.1465-.0882,2.83014-.125,5.66762.00736,8.49041.08826,1.95537-.77916,2.42584-2.5287,2.3891Zm15.45183-18.46573c-.02939-4.99867-2.41846-7.4098-7.4245-7.46127-6.22628-.05877-12.45261-.01469-18.67155-.01469-6.11605,0-12.23207-.02941-18.34811.01469-5.31479.03675-7.60094,2.27146-7.63771,7.53479q-.06616,11.95274,0,23.91283c.03674,5.17511,2.44054,7.54214,7.7112,7.56419q18.34809.06617,36.69622,0c5.16042-.02205,7.65238-2.54344,7.67445-7.63771Q481.23248,274.987,481.17743,263.02688ZM465.7256,281.49261c-3.5873-.08085-7.18195-.02205-10.77658-.02205s-7.19665-.05146-10.78394.02205c-1.51431.03675-2.1612-.42635-2.11709-2.02888.09556-3.04333.08085-6.094.00735-9.14466-.03674-1.44815.55133-1.86716,1.926-1.8598q11.10368.06615,22.21473.00736c1.57313-.00736,2.095.61748,2.05091,2.1465-.0882,2.83014-.125,5.66762.00736,8.49041.08826,1.95537-.77916,2.42584-2.5287,2.3891Zm15.45183-18.46573c-.02939-4.99867-2.41846-7.4098-7.4245-7.46127-6.22628-.05877-12.45261-.01469-18.67155-.01469-6.11605,0-12.23207-.02941-18.34811.01469-5.31479.03675-7.60094,2.27146-7.63771,7.53479q-.06616,11.95274,0,23.91283c.03674,5.17511,2.44054,7.54214,7.7112,7.56419q18.34809.06617,36.69622,0c5.16042-.02205,7.65238-2.54344,7.67445-7.63771Q481.23248,274.987,481.17743,263.02688ZM465.7256,281.49261c-3.5873-.08085-7.18195-.02205-10.77658-.02205s-7.19665-.05146-10.78394.02205c-1.51431.03675-2.1612-.42635-2.11709-2.02888.09556-3.04333.08085-6.094.00735-9.14466-.03674-1.44815.55133-1.86716,1.926-1.8598q11.10368.06615,22.21473.00736c1.57313-.00736,2.095.61748,2.05091,2.1465-.0882,2.83014-.125,5.66762.00736,8.49041.08826,1.95537-.77916,2.42584-2.5287,2.3891Zm15.45183-18.46573c-.02939-4.99867-2.41846-7.4098-7.4245-7.46127-6.22628-.05877-12.45261-.01469-18.67155-.01469-6.11605,0-12.23207-.02941-18.34811.01469-5.31479.03675-7.60094,2.27146-7.63771,7.53479q-.06616,11.95274,0,23.91283c.03674,5.17511,2.44054,7.54214,7.7112,7.56419q18.34809.06617,36.69622,0c5.16042-.02205,7.65238-2.54344,7.67445-7.63771Q481.23248,274.987,481.17743,263.02688ZM465.7256,281.49261c-3.5873-.08085-7.18195-.02205-10.77658-.02205s-7.19665-.05146-10.78394.02205c-1.51431.03675-2.1612-.42635-2.11709-2.02888.09556-3.04333.08085-6.094.00735-9.14466-.03674-1.44815.55133-1.86716,1.926-1.8598q11.10368.06615,22.21473.00736c1.57313-.00736,2.095.61748,2.05091,2.1465-.0882,2.83014-.125,5.66762.00736,8.49041.08826,1.95537-.77916,2.42584-2.5287,2.3891Z" transform="translate(-122.91465 -40.70428)"/><path d="M350.9102,224.66933c-.022-5.99107-2.28615-8.21109-8.3875-8.21842-10.262-.02206-20.53136-.00736-30.79334-.00736H281.25942c-6.46154.01469-8.48307,1.99212-8.49776,8.30663q-.03309,11.30217,0,22.60435c.022,5.85875,2.29351,8.17432,8.09346,8.18167q30.95144.03309,61.91755,0c5.71173-.00735,8.11552-2.46992,8.13757-8.25519Q350.9543,235.96783,350.9102,224.66933Zm-13.07009,7.59358a55.92506,55.92506,0,0,0-.0147,7.52742c.11762,1.99948-.58073,2.64637-2.5949,2.617-7.85823-.09556-15.71646-.03674-23.57469-.03674-7.7553,0-15.50327-.08085-23.25124.05146-2.18325.03674-2.8963-.61748-2.74927-2.77132.22052-3.24916-1.0218-7.476.59543-9.50485,1.70544-2.14653,6.116-.66159,9.33579-.68364,13.0995-.08085,26.199.01469,39.29848-.08085,2.22733-.01472,3.14621.52189,2.9551,2.88158Z" transform="translate(-122.91465 -40.70428)"/><path class="cls-2" d="M481.17743,263.02688c-.02939-4.99867-2.41846-7.4098-7.4245-7.46127-6.22628-.05877-12.45261-.01469-18.67155-.01469-6.11605,0-12.23207-.02941-18.34811.01469-5.31479.03675-7.60094,2.27146-7.63771,7.53479q-.06616,11.95274,0,23.91283c.03674,5.17511,2.44054,7.54214,7.7112,7.56419q18.34809.06617,36.69622,0c5.16042-.02205,7.65238-2.54344,7.67445-7.63771Q481.23248,274.987,481.17743,263.02688ZM465.7256,281.49261c-3.5873-.08085-7.18195-.02205-10.77658-.02205s-7.19665-.05146-10.78394.02205c-1.51431.03675-2.1612-.42635-2.11709-2.02888.09556-3.04333.08085-6.094.00735-9.14466-.03674-1.44815.55133-1.86716,1.926-1.8598q11.10368.06615,22.21473.00736c1.57313-.00736,2.095.61748,2.05091,2.1465-.0882,2.83014-.125,5.66762.00736,8.49041.08826,1.95537-.77916,2.42584-2.5287,2.3891Z" transform="translate(-122.91465 -40.70428)"/></svg>